%TF.GenerationSoftware,KiCad,Pcbnew,8.0.6*%
%TF.CreationDate,2024-12-07T16:12:25-04:00*%
%TF.ProjectId,Tarea Final,54617265-6120-4466-996e-616c2e6b6963,rev?*%
%TF.SameCoordinates,Original*%
%TF.FileFunction,Copper,L1,Top*%
%TF.FilePolarity,Positive*%
%FSLAX46Y46*%
G04 Gerber Fmt 4.6, Leading zero omitted, Abs format (unit mm)*
G04 Created by KiCad (PCBNEW 8.0.6) date 2024-12-07 16:12:25*
%MOMM*%
%LPD*%
G01*
G04 APERTURE LIST*
G04 Aperture macros list*
%AMRoundRect*
0 Rectangle with rounded corners*
0 $1 Rounding radius*
0 $2 $3 $4 $5 $6 $7 $8 $9 X,Y pos of 4 corners*
0 Add a 4 corners polygon primitive as box body*
4,1,4,$2,$3,$4,$5,$6,$7,$8,$9,$2,$3,0*
0 Add four circle primitives for the rounded corners*
1,1,$1+$1,$2,$3*
1,1,$1+$1,$4,$5*
1,1,$1+$1,$6,$7*
1,1,$1+$1,$8,$9*
0 Add four rect primitives between the rounded corners*
20,1,$1+$1,$2,$3,$4,$5,0*
20,1,$1+$1,$4,$5,$6,$7,0*
20,1,$1+$1,$6,$7,$8,$9,0*
20,1,$1+$1,$8,$9,$2,$3,0*%
G04 Aperture macros list end*
%TA.AperFunction,NonConductor*%
%ADD10C,0.200000*%
%TD*%
%TA.AperFunction,ComponentPad*%
%ADD11R,2.200000X2.200000*%
%TD*%
%TA.AperFunction,ComponentPad*%
%ADD12O,2.200000X2.200000*%
%TD*%
%TA.AperFunction,SMDPad,CuDef*%
%ADD13RoundRect,0.250000X0.300000X-2.050000X0.300000X2.050000X-0.300000X2.050000X-0.300000X-2.050000X0*%
%TD*%
%TA.AperFunction,SMDPad,CuDef*%
%ADD14RoundRect,0.250000X2.375000X-2.025000X2.375000X2.025000X-2.375000X2.025000X-2.375000X-2.025000X0*%
%TD*%
%TA.AperFunction,SMDPad,CuDef*%
%ADD15RoundRect,0.250002X5.149998X-4.449998X5.149998X4.449998X-5.149998X4.449998X-5.149998X-4.449998X0*%
%TD*%
%TA.AperFunction,SMDPad,CuDef*%
%ADD16R,1.500000X0.900000*%
%TD*%
%TA.AperFunction,SMDPad,CuDef*%
%ADD17R,0.900000X1.500000*%
%TD*%
%TA.AperFunction,SMDPad,CuDef*%
%ADD18R,1.050000X1.050000*%
%TD*%
%TA.AperFunction,HeatsinkPad*%
%ADD19C,0.600000*%
%TD*%
%TA.AperFunction,SMDPad,CuDef*%
%ADD20R,4.200000X4.200000*%
%TD*%
%TA.AperFunction,SMDPad,CuDef*%
%ADD21RoundRect,0.135000X-0.135000X-0.185000X0.135000X-0.185000X0.135000X0.185000X-0.135000X0.185000X0*%
%TD*%
%TA.AperFunction,ComponentPad*%
%ADD22R,1.905000X2.000000*%
%TD*%
%TA.AperFunction,ComponentPad*%
%ADD23O,1.905000X2.000000*%
%TD*%
%TA.AperFunction,ComponentPad*%
%ADD24R,2.000000X2.000000*%
%TD*%
%TA.AperFunction,ComponentPad*%
%ADD25C,2.000000*%
%TD*%
%TA.AperFunction,SMDPad,CuDef*%
%ADD26RoundRect,0.140000X-0.140000X-0.170000X0.140000X-0.170000X0.140000X0.170000X-0.140000X0.170000X0*%
%TD*%
%TA.AperFunction,ViaPad*%
%ADD27C,0.600000*%
%TD*%
%TA.AperFunction,Conductor*%
%ADD28C,0.300000*%
%TD*%
%TA.AperFunction,Conductor*%
%ADD29C,0.762000*%
%TD*%
G04 APERTURE END LIST*
D10*
X104010000Y-50790000D02*
X165740000Y-50790000D01*
X165740000Y-107220000D01*
X104010000Y-107220000D01*
X104010000Y-50790000D01*
D11*
%TO.P,D1,1,K*%
%TO.N,Net-(D1-K)*%
X144370000Y-90800000D03*
D12*
%TO.P,D1,2,A*%
%TO.N,Net-(D1-A)*%
X146910000Y-90800000D03*
%TD*%
D13*
%TO.P,U2,1,IN*%
%TO.N,+36V*%
X109940000Y-90810000D03*
%TO.P,U2,2,GND*%
%TO.N,GND*%
X112480000Y-90810000D03*
D14*
X109705000Y-84085000D03*
X115255000Y-84085000D03*
D15*
X112480000Y-81660000D03*
D14*
X109705000Y-79235000D03*
X115255000Y-79235000D03*
D13*
%TO.P,U2,3,OUT*%
%TO.N,+5V*%
X115020000Y-90810000D03*
%TD*%
D16*
%TO.P,U1,1,GND*%
%TO.N,GND*%
X122050000Y-75150000D03*
%TO.P,U1,2,VDD*%
%TO.N,VDD*%
X122050000Y-76420000D03*
%TO.P,U1,3,EN*%
%TO.N,unconnected-(U1-EN-Pad3)*%
X122050000Y-77690000D03*
%TO.P,U1,4,SENSOR_VP*%
%TO.N,unconnected-(U1-SENSOR_VP-Pad4)*%
X122050000Y-78960000D03*
%TO.P,U1,5,SENSOR_VN*%
%TO.N,unconnected-(U1-SENSOR_VN-Pad5)*%
X122050000Y-80230000D03*
%TO.P,U1,6,IO34*%
%TO.N,unconnected-(U1-IO34-Pad6)*%
X122050000Y-81500000D03*
%TO.P,U1,7,IO35*%
%TO.N,unconnected-(U1-IO35-Pad7)*%
X122050000Y-82770000D03*
%TO.P,U1,8,IO32*%
%TO.N,unconnected-(U1-IO32-Pad8)*%
X122050000Y-84040000D03*
%TO.P,U1,9,IO33*%
%TO.N,unconnected-(U1-IO33-Pad9)*%
X122050000Y-85310000D03*
%TO.P,U1,10,IO25*%
%TO.N,unconnected-(U1-IO25-Pad10)*%
X122050000Y-86580000D03*
%TO.P,U1,11,IO26*%
%TO.N,unconnected-(U1-IO26-Pad11)*%
X122050000Y-87850000D03*
%TO.P,U1,12,IO27*%
%TO.N,unconnected-(U1-IO27-Pad12)*%
X122050000Y-89120000D03*
%TO.P,U1,13,IO14*%
%TO.N,Led-Verde*%
X122050000Y-90390000D03*
%TO.P,U1,14,IO12*%
%TO.N,Led-Rojo*%
X122050000Y-91660000D03*
D17*
%TO.P,U1,15,GND*%
%TO.N,GND*%
X125090000Y-92910000D03*
%TO.P,U1,16,IO13*%
%TO.N,Led-Amarillo*%
X126360000Y-92910000D03*
%TO.P,U1,17,SHD/SD2*%
%TO.N,unconnected-(U1-SHD{slash}SD2-Pad17)*%
X127630000Y-92910000D03*
%TO.P,U1,18,SWP/SD3*%
%TO.N,unconnected-(U1-SWP{slash}SD3-Pad18)*%
X128900000Y-92910000D03*
%TO.P,U1,19,SCS/CMD*%
%TO.N,unconnected-(U1-SCS{slash}CMD-Pad19)*%
X130170000Y-92910000D03*
%TO.P,U1,20,SCK/CLK*%
%TO.N,unconnected-(U1-SCK{slash}CLK-Pad20)*%
X131440000Y-92910000D03*
%TO.P,U1,21,SDO/SD0*%
%TO.N,unconnected-(U1-SDO{slash}SD0-Pad21)*%
X132710000Y-92910000D03*
%TO.P,U1,22,SDI/SD1*%
%TO.N,unconnected-(U1-SDI{slash}SD1-Pad22)*%
X133980000Y-92910000D03*
%TO.P,U1,23,IO15*%
%TO.N,Boton1*%
X135250000Y-92910000D03*
%TO.P,U1,24,IO2*%
%TO.N,unconnected-(U1-IO2-Pad24)*%
X136520000Y-92910000D03*
D16*
%TO.P,U1,25,IO0*%
%TO.N,unconnected-(U1-IO0-Pad25)*%
X139550000Y-91660000D03*
%TO.P,U1,26,IO4*%
%TO.N,Ajuste de velocidad*%
X139550000Y-90390000D03*
%TO.P,U1,27,IO16*%
%TO.N,Boton2*%
X139550000Y-89120000D03*
%TO.P,U1,28,IO17*%
%TO.N,MEDICION_BATERIA*%
X139550000Y-87850000D03*
%TO.P,U1,29,IO5*%
%TO.N,ON_OFF_VAR*%
X139550000Y-86580000D03*
%TO.P,U1,30,IO18*%
%TO.N,Detecion_cargador*%
X139550000Y-85310000D03*
%TO.P,U1,31,IO19*%
%TO.N,Activacion_carga*%
X139550000Y-84040000D03*
%TO.P,U1,32,NC*%
%TO.N,unconnected-(U1-NC-Pad32)*%
X139550000Y-82770000D03*
%TO.P,U1,33,IO21*%
%TO.N,unconnected-(U1-IO21-Pad33)*%
X139550000Y-81500000D03*
%TO.P,U1,34,RXD0/IO3*%
%TO.N,unconnected-(U1-RXD0{slash}IO3-Pad34)*%
X139550000Y-80230000D03*
%TO.P,U1,35,TXD0/IO1*%
%TO.N,unconnected-(U1-TXD0{slash}IO1-Pad35)*%
X139550000Y-78960000D03*
%TO.P,U1,36,IO22*%
%TO.N,unconnected-(U1-IO22-Pad36)*%
X139550000Y-77690000D03*
%TO.P,U1,37,IO23*%
%TO.N,unconnected-(U1-IO23-Pad37)*%
X139550000Y-76420000D03*
%TO.P,U1,38,GND*%
%TO.N,GND*%
X139550000Y-75150000D03*
D18*
%TO.P,U1,39,GND*%
X128595000Y-80965000D03*
D19*
X128595000Y-81727500D03*
D18*
X128595000Y-82490000D03*
D19*
X128595000Y-83252500D03*
D18*
X128595000Y-84015000D03*
D19*
X129357500Y-80965000D03*
X129357500Y-82490000D03*
X129357500Y-84015000D03*
D18*
X130120000Y-80965000D03*
D19*
X130120000Y-81727500D03*
D18*
X130120000Y-82490000D03*
D20*
X130120000Y-82490000D03*
D19*
X130120000Y-83252500D03*
D18*
X130120000Y-84015000D03*
D19*
X130882500Y-80965000D03*
X130882500Y-82490000D03*
X130882500Y-84015000D03*
D18*
X131645000Y-80965000D03*
D19*
X131645000Y-81727500D03*
D18*
X131645000Y-82490000D03*
D19*
X131645000Y-83252500D03*
D18*
X131645000Y-84015000D03*
%TD*%
D21*
%TO.P,R5,1*%
%TO.N,Activacion_carga*%
X143860000Y-78760000D03*
%TO.P,R5,2*%
%TO.N,Net-(Q1-B)*%
X144880000Y-78760000D03*
%TD*%
%TO.P,R4,1*%
%TO.N,Detecion_cargador*%
X147120000Y-82750000D03*
%TO.P,R4,2*%
%TO.N,GND*%
X148140000Y-82750000D03*
%TD*%
%TO.P,R3,1*%
%TO.N,Net-(D1-K)*%
X143740000Y-82660000D03*
%TO.P,R3,2*%
%TO.N,Detecion_cargador*%
X144760000Y-82660000D03*
%TD*%
%TO.P,R2,1*%
%TO.N,MEDICION_BATERIA*%
X147440000Y-86770000D03*
%TO.P,R2,2*%
%TO.N,GND*%
X148460000Y-86770000D03*
%TD*%
%TO.P,R1,1*%
%TO.N,+36V*%
X143700000Y-86770000D03*
%TO.P,R1,2*%
%TO.N,MEDICION_BATERIA*%
X144720000Y-86770000D03*
%TD*%
D22*
%TO.P,Q1,1,B*%
%TO.N,Net-(Q1-B)*%
X144320000Y-100810000D03*
D23*
%TO.P,Q1,2,C*%
%TO.N,+36V*%
X146860000Y-100810000D03*
%TO.P,Q1,3,E*%
%TO.N,Net-(D1-K)*%
X149400000Y-100810000D03*
%TD*%
D24*
%TO.P,J6,1,Pin_1*%
%TO.N,Net-(D1-A)*%
X134320000Y-100730000D03*
D25*
%TO.P,J6,2,Pin_2*%
%TO.N,GND*%
X136860000Y-100730000D03*
%TD*%
D24*
%TO.P,J5,1,Pin_1*%
%TO.N,+36V*%
X124955000Y-100580000D03*
D25*
%TO.P,J5,2,Pin_2*%
%TO.N,GND*%
X127495000Y-100580000D03*
%TD*%
D24*
%TO.P,J4,1,Pin_1*%
%TO.N,Boton1*%
X157680000Y-100680000D03*
D25*
%TO.P,J4,2,Pin_2*%
%TO.N,Boton2*%
X157680000Y-98140000D03*
%TO.P,J4,3,Pin_3*%
%TO.N,+3.3V*%
X157680000Y-95600000D03*
%TD*%
D24*
%TO.P,J3,1,Pin_1*%
%TO.N,Led-Rojo*%
X113300000Y-98980000D03*
D25*
%TO.P,J3,2,Pin_2*%
%TO.N,Led-Amarillo*%
X115840000Y-98980000D03*
%TO.P,J3,3,Pin_3*%
%TO.N,Led-Verde*%
X118380000Y-98980000D03*
%TD*%
D24*
%TO.P,J2,1,Pin_1*%
%TO.N,ON_OFF_VAR*%
X157590000Y-78740000D03*
D25*
%TO.P,J2,2,Pin_2*%
%TO.N,unconnected-(J2-Pin_2-Pad2)*%
X155050000Y-78740000D03*
%TO.P,J2,3,Pin_3*%
%TO.N,unconnected-(J2-Pin_3-Pad3)*%
X152510000Y-78740000D03*
%TD*%
D24*
%TO.P,J1,1,Pin_1*%
%TO.N,+3.3V*%
X157950000Y-90530000D03*
D25*
%TO.P,J1,2,Pin_2*%
%TO.N,Ajuste de velocidad*%
X157950000Y-87990000D03*
%TO.P,J1,3,Pin_3*%
%TO.N,GND*%
X157950000Y-85450000D03*
%TD*%
D26*
%TO.P,C4,1*%
%TO.N,+5V*%
X149890000Y-93800000D03*
%TO.P,C4,2*%
%TO.N,GND*%
X150850000Y-93800000D03*
%TD*%
%TO.P,C3,1*%
%TO.N,+36V*%
X150010000Y-90650000D03*
%TO.P,C3,2*%
%TO.N,GND*%
X150970000Y-90650000D03*
%TD*%
%TO.P,C2,1*%
%TO.N,Net-(D1-K)*%
X143960000Y-95000000D03*
%TO.P,C2,2*%
%TO.N,GND*%
X144920000Y-95000000D03*
%TD*%
%TO.P,C1,1*%
%TO.N,Ajuste de velocidad*%
X150670000Y-86720000D03*
%TO.P,C1,2*%
%TO.N,GND*%
X151630000Y-86720000D03*
%TD*%
D27*
%TO.N,Net-(D1-K)*%
X142710000Y-83130000D03*
X144180000Y-88850000D03*
%TO.N,Ajuste de velocidad*%
X141430000Y-90570000D03*
X153600000Y-85170000D03*
%TO.N,Boton1*%
X136530000Y-95390000D03*
X153470000Y-100170000D03*
X157680000Y-100680000D03*
X157680000Y-100680000D03*
%TO.N,Boton2*%
X141910000Y-88560000D03*
X153110000Y-95850000D03*
%TO.N,Led-Verde*%
X117464620Y-94805380D03*
X120240000Y-88620000D03*
%TO.N,Led-Amarillo*%
X127700000Y-95130000D03*
X121120000Y-99380000D03*
%TD*%
D28*
%TO.N,MEDICION_BATERIA*%
X144720000Y-86770000D02*
X147440000Y-86770000D01*
%TO.N,Ajuste de velocidad*%
X156020000Y-86060000D02*
X157950000Y-87990000D01*
X151020001Y-86060000D02*
X156020000Y-86060000D01*
X150670000Y-86410001D02*
X151020001Y-86060000D01*
X150670000Y-86720000D02*
X150670000Y-86410001D01*
%TO.N,MEDICION_BATERIA*%
X141586210Y-87850000D02*
X139550000Y-87850000D01*
X146709000Y-86039000D02*
X143397210Y-86039000D01*
X143397210Y-86039000D02*
X141586210Y-87850000D01*
X147440000Y-86770000D02*
X146709000Y-86039000D01*
%TO.N,Net-(D1-K)*%
X142710000Y-83130000D02*
X142670000Y-83170000D01*
X144370000Y-89040000D02*
X144180000Y-88850000D01*
X144370000Y-90800000D02*
X144370000Y-89040000D01*
X143180000Y-82660000D02*
X142710000Y-83130000D01*
X143740000Y-82660000D02*
X143180000Y-82660000D01*
%TO.N,Detecion_cargador*%
X147030000Y-82660000D02*
X147120000Y-82750000D01*
X144760000Y-82660000D02*
X147030000Y-82660000D01*
%TO.N,Activacion_carga*%
X140180000Y-84040000D02*
X139550000Y-84040000D01*
X143860000Y-78760000D02*
X143860000Y-80360000D01*
X143860000Y-80360000D02*
X140180000Y-84040000D01*
%TO.N,ON_OFF_VAR*%
X152700000Y-83630000D02*
X143130000Y-83630000D01*
X143130000Y-83630000D02*
X140180000Y-86580000D01*
X157590000Y-78740000D02*
X152700000Y-83630000D01*
X140180000Y-86580000D02*
X139550000Y-86580000D01*
%TO.N,Ajuste de velocidad*%
X141250000Y-90390000D02*
X141430000Y-90570000D01*
X139550000Y-90390000D02*
X141250000Y-90390000D01*
X156420000Y-87990000D02*
X153600000Y-85170000D01*
X157950000Y-87990000D02*
X156420000Y-87990000D01*
%TO.N,Boton1*%
X136530000Y-95390000D02*
X136550000Y-95410000D01*
X135250000Y-94110000D02*
X136530000Y-95390000D01*
X135250000Y-92910000D02*
X135250000Y-94110000D01*
X153980000Y-100680000D02*
X153470000Y-100170000D01*
X157680000Y-100680000D02*
X153980000Y-100680000D01*
%TO.N,Boton2*%
X141350000Y-89120000D02*
X141910000Y-88560000D01*
X139550000Y-89120000D02*
X141350000Y-89120000D01*
X155400000Y-98140000D02*
X153110000Y-95850000D01*
X157680000Y-98140000D02*
X155400000Y-98140000D01*
%TO.N,Led-Verde*%
X117464619Y-94805380D02*
X117429239Y-94770000D01*
X117464620Y-94805380D02*
X117464619Y-94805380D01*
X117464620Y-94805381D02*
X117464620Y-94805380D01*
X120240000Y-89630000D02*
X120240000Y-88620000D01*
X121000000Y-90390000D02*
X120240000Y-89630000D01*
X122050000Y-90390000D02*
X121000000Y-90390000D01*
X117429239Y-94770000D02*
X117370000Y-94770000D01*
X121770000Y-99110761D02*
X117464620Y-94805381D01*
X119430000Y-100030000D02*
X121389239Y-100030000D01*
X121770000Y-99649239D02*
X121770000Y-99110761D01*
X121389239Y-100030000D02*
X121770000Y-99649239D01*
X118380000Y-98980000D02*
X119430000Y-100030000D01*
%TO.N,Led-Amarillo*%
X127700000Y-95130000D02*
X127700000Y-95160000D01*
X127700000Y-94770761D02*
X127700000Y-95130000D01*
X126360000Y-93430761D02*
X127700000Y-94770761D01*
X126360000Y-92910000D02*
X126360000Y-93430761D01*
X121120000Y-99380000D02*
X121170000Y-99430000D01*
X119370000Y-97630000D02*
X121120000Y-99380000D01*
X117190000Y-97630000D02*
X119370000Y-97630000D01*
X115840000Y-98980000D02*
X117190000Y-97630000D01*
%TO.N,Led-Rojo*%
X109040000Y-88504544D02*
X109384544Y-88160000D01*
X117770000Y-88160000D02*
X121270000Y-91660000D01*
X109040000Y-93115456D02*
X109040000Y-88504544D01*
X121270000Y-91660000D02*
X122050000Y-91660000D01*
X113300000Y-97375456D02*
X109040000Y-93115456D01*
X109384544Y-88160000D02*
X117770000Y-88160000D01*
X113300000Y-98980000D02*
X113300000Y-97375456D01*
D29*
%TO.N,+5V*%
X116920000Y-92710000D02*
X115020000Y-90810000D01*
X150933500Y-101492696D02*
X150035196Y-102391000D01*
X131711000Y-102391000D02*
X122030000Y-92710000D01*
X122030000Y-92710000D02*
X116920000Y-92710000D01*
X150933500Y-100127304D02*
X150933500Y-101492696D01*
X149890000Y-99083804D02*
X150933500Y-100127304D01*
X149890000Y-93800000D02*
X149890000Y-99083804D01*
X150035196Y-102391000D02*
X131711000Y-102391000D01*
%TO.N,+3.3V*%
X157680000Y-90800000D02*
X157950000Y-90530000D01*
X157680000Y-95600000D02*
X157680000Y-90800000D01*
%TO.N,+36V*%
X143700000Y-87086318D02*
X143700000Y-86770000D01*
X149745000Y-90915000D02*
X146501000Y-87671000D01*
X146501000Y-87671000D02*
X144284682Y-87671000D01*
X149745000Y-90915000D02*
X150010000Y-90650000D01*
X144284682Y-87671000D02*
X143700000Y-87086318D01*
X146860000Y-93800000D02*
X149745000Y-90915000D01*
X146860000Y-100810000D02*
X146860000Y-93800000D01*
X109940000Y-91802138D02*
X109940000Y-90810000D01*
X118066000Y-93691000D02*
X111828862Y-93691000D01*
X124955000Y-100580000D02*
X118066000Y-93691000D01*
X111828862Y-93691000D02*
X109940000Y-91802138D01*
%TD*%
%TA.AperFunction,Conductor*%
%TO.N,GND*%
G36*
X111373039Y-88830185D02*
G01*
X111418794Y-88882989D01*
X111430000Y-88934500D01*
X111430000Y-90560000D01*
X113529999Y-90560000D01*
X113529999Y-88934500D01*
X113549684Y-88867461D01*
X113602488Y-88821706D01*
X113653999Y-88810500D01*
X113845500Y-88810500D01*
X113912539Y-88830185D01*
X113958294Y-88882989D01*
X113969500Y-88934500D01*
X113969501Y-92685500D01*
X113949816Y-92752539D01*
X113897012Y-92798294D01*
X113845501Y-92809500D01*
X113654000Y-92809500D01*
X113586961Y-92789815D01*
X113541206Y-92737011D01*
X113530000Y-92685500D01*
X113530000Y-91060000D01*
X111430000Y-91060000D01*
X111430000Y-91746146D01*
X111410315Y-91813186D01*
X111357511Y-91858940D01*
X111288353Y-91868884D01*
X111224797Y-91839859D01*
X111218319Y-91833827D01*
X111026818Y-91642326D01*
X110993333Y-91581003D01*
X110990499Y-91554645D01*
X110990499Y-88934500D01*
X111010184Y-88867461D01*
X111062988Y-88821706D01*
X111114499Y-88810500D01*
X111306000Y-88810500D01*
X111373039Y-88830185D01*
G37*
%TD.AperFunction*%
%TA.AperFunction,Conductor*%
G36*
X165082539Y-51410185D02*
G01*
X165128294Y-51462989D01*
X165139500Y-51514500D01*
X165139500Y-106495500D01*
X165119815Y-106562539D01*
X165067011Y-106608294D01*
X165015500Y-106619500D01*
X104734500Y-106619500D01*
X104667461Y-106599815D01*
X104621706Y-106547011D01*
X104610500Y-106495500D01*
X104610500Y-88440472D01*
X108389500Y-88440472D01*
X108389500Y-88440475D01*
X108389500Y-93179525D01*
X108401146Y-93238073D01*
X108401732Y-93241016D01*
X108401732Y-93241018D01*
X108414497Y-93305192D01*
X108414499Y-93305200D01*
X108463534Y-93423581D01*
X108534726Y-93530129D01*
X108534727Y-93530130D01*
X112278313Y-97273715D01*
X112311798Y-97335038D01*
X112306814Y-97404730D01*
X112264942Y-97460663D01*
X112203891Y-97484685D01*
X112192519Y-97485907D01*
X112057671Y-97536202D01*
X112057664Y-97536206D01*
X111942455Y-97622452D01*
X111942452Y-97622455D01*
X111856206Y-97737664D01*
X111856202Y-97737671D01*
X111805908Y-97872517D01*
X111799501Y-97932116D01*
X111799500Y-97932135D01*
X111799500Y-100027870D01*
X111799501Y-100027876D01*
X111805908Y-100087483D01*
X111856202Y-100222328D01*
X111856206Y-100222335D01*
X111942452Y-100337544D01*
X111942455Y-100337547D01*
X112057664Y-100423793D01*
X112057671Y-100423797D01*
X112192517Y-100474091D01*
X112192516Y-100474091D01*
X112199444Y-100474835D01*
X112252127Y-100480500D01*
X114347872Y-100480499D01*
X114407483Y-100474091D01*
X114542331Y-100423796D01*
X114657546Y-100337546D01*
X114743796Y-100222331D01*
X114743797Y-100222326D01*
X114748047Y-100214546D01*
X114751288Y-100216316D01*
X114782541Y-100174393D01*
X114847956Y-100149844D01*
X114916259Y-100164558D01*
X114933212Y-100175655D01*
X115016491Y-100240474D01*
X115235190Y-100358828D01*
X115470386Y-100439571D01*
X115715665Y-100480500D01*
X115964335Y-100480500D01*
X116209614Y-100439571D01*
X116444810Y-100358828D01*
X116663509Y-100240474D01*
X116859744Y-100087738D01*
X117018771Y-99914988D01*
X117078657Y-99878999D01*
X117148495Y-99881099D01*
X117201228Y-99914988D01*
X117360256Y-100087738D01*
X117556491Y-100240474D01*
X117556493Y-100240475D01*
X117757489Y-100349249D01*
X117775190Y-100358828D01*
X118010386Y-100439571D01*
X118255665Y-100480500D01*
X118504335Y-100480500D01*
X118749614Y-100439571D01*
X118802966Y-100421254D01*
X118872762Y-100418104D01*
X118930907Y-100450853D01*
X119015330Y-100535276D01*
X119089253Y-100584669D01*
X119121873Y-100606465D01*
X119240256Y-100655501D01*
X119240260Y-100655501D01*
X119240261Y-100655502D01*
X119365928Y-100680500D01*
X119365931Y-100680500D01*
X121453310Y-100680500D01*
X121561438Y-100658991D01*
X121578983Y-100655501D01*
X121697366Y-100606465D01*
X121716936Y-100593389D01*
X121803908Y-100535277D01*
X122275276Y-100063909D01*
X122346465Y-99957366D01*
X122395501Y-99838983D01*
X122399182Y-99820478D01*
X122407328Y-99779525D01*
X122420500Y-99713310D01*
X122420500Y-99591491D01*
X122440185Y-99524452D01*
X122492989Y-99478697D01*
X122562147Y-99468753D01*
X122625703Y-99497778D01*
X122632181Y-99503810D01*
X123418181Y-100289810D01*
X123451666Y-100351133D01*
X123454500Y-100377491D01*
X123454500Y-101627870D01*
X123454501Y-101627876D01*
X123460908Y-101687483D01*
X123511202Y-101822328D01*
X123511206Y-101822335D01*
X123597452Y-101937544D01*
X123597455Y-101937547D01*
X123712664Y-102023793D01*
X123712671Y-102023797D01*
X123847517Y-102074091D01*
X123847516Y-102074091D01*
X123854444Y-102074835D01*
X123907127Y-102080500D01*
X126002872Y-102080499D01*
X126062483Y-102074091D01*
X126197331Y-102023796D01*
X126312546Y-101937546D01*
X126398796Y-101822331D01*
X126398797Y-101822326D01*
X126403047Y-101814546D01*
X126406135Y-101816232D01*
X126437873Y-101773790D01*
X126503324Y-101749339D01*
X126571605Y-101764155D01*
X126588398Y-101775165D01*
X126671768Y-101840055D01*
X126671771Y-101840057D01*
X126890385Y-101958364D01*
X126890396Y-101958369D01*
X127125506Y-102039083D01*
X127370707Y-102080000D01*
X127619293Y-102080000D01*
X127864493Y-102039083D01*
X128099603Y-101958369D01*
X128099614Y-101958364D01*
X128318228Y-101840057D01*
X128318231Y-101840055D01*
X128365056Y-101803609D01*
X127706059Y-101144612D01*
X127726591Y-101139111D01*
X127863408Y-101060119D01*
X127975119Y-100948408D01*
X128054111Y-100811591D01*
X128059612Y-100791060D01*
X128718434Y-101449882D01*
X128818732Y-101296367D01*
X128913828Y-101079567D01*
X128958783Y-101026081D01*
X129025519Y-101005390D01*
X129092847Y-101024064D01*
X129115065Y-101041695D01*
X131026294Y-102952923D01*
X131149074Y-103075703D01*
X131149078Y-103075707D01*
X131293446Y-103172171D01*
X131293459Y-103172178D01*
X131453871Y-103238622D01*
X131453876Y-103238624D01*
X131453880Y-103238624D01*
X131453881Y-103238625D01*
X131624177Y-103272500D01*
X131624180Y-103272500D01*
X150122019Y-103272500D01*
X150236589Y-103249709D01*
X150292320Y-103238624D01*
X150372531Y-103205399D01*
X150452739Y-103172177D01*
X150452740Y-103172176D01*
X150452743Y-103172175D01*
X150597120Y-103075706D01*
X151618206Y-102054619D01*
X151677562Y-101965786D01*
X151714675Y-101910243D01*
X151744813Y-101837483D01*
X151781125Y-101749820D01*
X151815000Y-101579516D01*
X151815000Y-101405875D01*
X151815000Y-100040484D01*
X151815000Y-100040480D01*
X151812816Y-100029503D01*
X151812815Y-100029498D01*
X151788008Y-99904785D01*
X151781125Y-99870180D01*
X151726426Y-99738127D01*
X151714675Y-99709757D01*
X151714674Y-99709755D01*
X151714673Y-99709753D01*
X151661717Y-99630500D01*
X151661716Y-99630499D01*
X151656383Y-99622517D01*
X151618206Y-99565380D01*
X151618204Y-99565378D01*
X151618202Y-99565375D01*
X150807819Y-98754992D01*
X150774334Y-98693669D01*
X150771500Y-98667311D01*
X150771500Y-94604503D01*
X151100000Y-94604503D01*
X151246195Y-94562031D01*
X151385374Y-94479721D01*
X151385383Y-94479714D01*
X151499714Y-94365383D01*
X151499721Y-94365374D01*
X151582031Y-94226195D01*
X151582033Y-94226190D01*
X151627144Y-94070918D01*
X151627145Y-94070912D01*
X151628790Y-94050000D01*
X151100000Y-94050000D01*
X151100000Y-94604503D01*
X150771500Y-94604503D01*
X150771500Y-93713177D01*
X150737625Y-93542881D01*
X150737624Y-93542880D01*
X150737624Y-93542876D01*
X150737622Y-93542871D01*
X150671178Y-93382459D01*
X150671171Y-93382446D01*
X150620898Y-93307207D01*
X150600020Y-93240529D01*
X150600000Y-93238316D01*
X150600000Y-92995494D01*
X151100000Y-92995494D01*
X151100000Y-93550000D01*
X151628790Y-93550000D01*
X151627145Y-93529089D01*
X151582031Y-93373804D01*
X151499721Y-93234625D01*
X151499714Y-93234616D01*
X151385383Y-93120285D01*
X151385374Y-93120278D01*
X151246193Y-93037967D01*
X151246190Y-93037965D01*
X151100001Y-92995493D01*
X151100000Y-92995494D01*
X150600000Y-92995494D01*
X150599998Y-92995493D01*
X150453805Y-93037967D01*
X150446647Y-93041065D01*
X150445523Y-93038469D01*
X150390794Y-93052334D01*
X150326551Y-93031523D01*
X150307552Y-93018828D01*
X150307543Y-93018823D01*
X150147124Y-92952376D01*
X150147118Y-92952374D01*
X149976822Y-92918500D01*
X149976820Y-92918500D01*
X149803180Y-92918500D01*
X149803178Y-92918500D01*
X149632881Y-92952374D01*
X149632871Y-92952377D01*
X149472459Y-93018821D01*
X149472446Y-93018828D01*
X149328077Y-93115293D01*
X149328073Y-93115296D01*
X149205296Y-93238073D01*
X149205293Y-93238077D01*
X149108828Y-93382446D01*
X149108821Y-93382459D01*
X149042377Y-93542871D01*
X149042374Y-93542881D01*
X149008500Y-93713177D01*
X149008500Y-99170629D01*
X149022745Y-99242245D01*
X149016518Y-99311837D01*
X148973654Y-99367014D01*
X148939448Y-99384366D01*
X148842241Y-99415951D01*
X148638461Y-99519783D01*
X148572550Y-99567671D01*
X148453434Y-99654214D01*
X148453432Y-99654216D01*
X148453431Y-99654216D01*
X148291715Y-99815932D01*
X148230318Y-99900438D01*
X148174987Y-99943103D01*
X148105374Y-99949082D01*
X148043579Y-99916476D01*
X148029682Y-99900438D01*
X148015631Y-99881099D01*
X147968286Y-99815934D01*
X147806566Y-99654214D01*
X147792610Y-99644074D01*
X147749947Y-99588743D01*
X147741500Y-99543759D01*
X147741500Y-94216492D01*
X147761185Y-94149453D01*
X147777819Y-94128811D01*
X149108336Y-92798294D01*
X150429706Y-91476924D01*
X150429706Y-91476923D01*
X150460574Y-91446055D01*
X150521897Y-91412570D01*
X150582849Y-91414659D01*
X150720000Y-91454504D01*
X150720000Y-91454503D01*
X151220000Y-91454503D01*
X151366195Y-91412031D01*
X151505374Y-91329721D01*
X151505383Y-91329714D01*
X151619714Y-91215383D01*
X151619721Y-91215374D01*
X151702031Y-91076195D01*
X151702033Y-91076190D01*
X151747144Y-90920918D01*
X151747145Y-90920912D01*
X151748790Y-90900000D01*
X151220000Y-90900000D01*
X151220000Y-91454503D01*
X150720000Y-91454503D01*
X150720000Y-91211682D01*
X150739685Y-91144643D01*
X150740898Y-91142791D01*
X150791171Y-91067552D01*
X150791171Y-91067551D01*
X150791175Y-91067546D01*
X150857625Y-90907124D01*
X150891500Y-90736820D01*
X150891500Y-90563179D01*
X150857625Y-90392876D01*
X150791175Y-90232453D01*
X150740897Y-90157206D01*
X150720020Y-90090528D01*
X150720000Y-90088316D01*
X150720000Y-89845494D01*
X151220000Y-89845494D01*
X151220000Y-90400000D01*
X151748790Y-90400000D01*
X151747145Y-90379089D01*
X151702031Y-90223804D01*
X151619721Y-90084625D01*
X151619714Y-90084616D01*
X151505383Y-89970285D01*
X151505374Y-89970278D01*
X151366193Y-89887967D01*
X151366190Y-89887965D01*
X151220001Y-89845493D01*
X151220000Y-89845494D01*
X150720000Y-89845494D01*
X150719998Y-89845493D01*
X150573805Y-89887967D01*
X150566647Y-89891065D01*
X150565523Y-89888469D01*
X150510794Y-89902334D01*
X150446551Y-89881523D01*
X150427546Y-89868824D01*
X150267124Y-89802375D01*
X150267116Y-89802373D01*
X150096825Y-89768500D01*
X150096821Y-89768500D01*
X149923180Y-89768500D01*
X149923168Y-89768500D01*
X149923068Y-89768521D01*
X149923014Y-89768516D01*
X149917116Y-89769097D01*
X149917005Y-89767977D01*
X149853477Y-89762285D01*
X149811211Y-89734582D01*
X147810538Y-87733908D01*
X147777053Y-87672585D01*
X147782037Y-87602893D01*
X147823909Y-87546960D01*
X147835088Y-87539500D01*
X147887372Y-87508580D01*
X147955093Y-87491398D01*
X148013612Y-87508581D01*
X148070805Y-87542404D01*
X148210000Y-87582844D01*
X148210000Y-87582843D01*
X148710000Y-87582843D01*
X148849194Y-87542404D01*
X148987285Y-87460738D01*
X148987294Y-87460731D01*
X149100731Y-87347294D01*
X149100738Y-87347285D01*
X149182406Y-87209191D01*
X149182407Y-87209188D01*
X149227166Y-87055128D01*
X149227167Y-87055122D01*
X149229931Y-87020000D01*
X148710000Y-87020000D01*
X148710000Y-87582843D01*
X148210000Y-87582843D01*
X148210000Y-87030408D01*
X148210382Y-87020679D01*
X148210500Y-87019181D01*
X148210499Y-86520820D01*
X148210434Y-86520000D01*
X148210382Y-86519332D01*
X148210000Y-86509607D01*
X148210000Y-85957154D01*
X148710000Y-85957154D01*
X148710000Y-86520000D01*
X149229931Y-86520000D01*
X149227200Y-86485302D01*
X149889500Y-86485302D01*
X149889500Y-86954697D01*
X149892356Y-86990991D01*
X149892357Y-86990997D01*
X149937504Y-87146390D01*
X149937505Y-87146393D01*
X150019881Y-87285684D01*
X150019887Y-87285692D01*
X150134307Y-87400112D01*
X150134311Y-87400115D01*
X150134313Y-87400117D01*
X150273605Y-87482494D01*
X150314587Y-87494400D01*
X150429002Y-87527642D01*
X150429005Y-87527642D01*
X150429007Y-87527643D01*
X150465310Y-87530500D01*
X150465318Y-87530500D01*
X150874682Y-87530500D01*
X150874690Y-87530500D01*
X150910993Y-87527643D01*
X150910995Y-87527642D01*
X150910997Y-87527642D01*
X150992836Y-87503865D01*
X151066395Y-87482494D01*
X151087369Y-87470089D01*
X151155088Y-87452906D01*
X151213613Y-87470090D01*
X151233803Y-87482031D01*
X151380000Y-87524504D01*
X151380000Y-87218352D01*
X151397267Y-87155233D01*
X151402494Y-87146395D01*
X151422405Y-87077864D01*
X151447642Y-86990997D01*
X151447643Y-86990991D01*
X151450500Y-86954690D01*
X151450500Y-86834500D01*
X151470185Y-86767461D01*
X151522989Y-86721706D01*
X151574500Y-86710500D01*
X151756000Y-86710500D01*
X151823039Y-86730185D01*
X151868794Y-86782989D01*
X151880000Y-86834500D01*
X151880000Y-87524503D01*
X152026195Y-87482031D01*
X152165374Y-87399721D01*
X152165383Y-87399714D01*
X152279714Y-87285383D01*
X152279721Y-87285374D01*
X152362030Y-87146196D01*
X152407145Y-86990910D01*
X152407145Y-86990907D01*
X152409999Y-86954644D01*
X152410000Y-86954629D01*
X152410000Y-86834500D01*
X152429685Y-86767461D01*
X152482489Y-86721706D01*
X152534000Y-86710500D01*
X154169192Y-86710500D01*
X154236231Y-86730185D01*
X154256873Y-86746819D01*
X156005324Y-88495271D01*
X156005327Y-88495274D01*
X156005330Y-88495276D01*
X156080462Y-88545477D01*
X156111873Y-88566465D01*
X156230256Y-88615501D01*
X156230260Y-88615501D01*
X156230261Y-88615502D01*
X156355928Y-88640500D01*
X156355931Y-88640500D01*
X156516163Y-88640500D01*
X156583202Y-88660185D01*
X156622560Y-88702614D01*
X156623022Y-88702313D01*
X156624787Y-88705015D01*
X156625214Y-88705475D01*
X156625823Y-88706600D01*
X156625825Y-88706604D01*
X156625827Y-88706607D01*
X156756742Y-88906988D01*
X156776929Y-88973877D01*
X156757749Y-89041063D01*
X156712367Y-89083637D01*
X156707670Y-89086201D01*
X156592455Y-89172452D01*
X156592452Y-89172455D01*
X156506206Y-89287664D01*
X156506202Y-89287671D01*
X156455908Y-89422517D01*
X156449501Y-89482116D01*
X156449501Y-89482123D01*
X156449500Y-89482135D01*
X156449500Y-91577870D01*
X156449501Y-91577876D01*
X156455908Y-91637483D01*
X156506202Y-91772328D01*
X156506206Y-91772335D01*
X156592452Y-91887544D01*
X156592455Y-91887547D01*
X156707665Y-91973794D01*
X156707667Y-91973794D01*
X156707669Y-91973796D01*
X156717830Y-91977585D01*
X156773763Y-92019453D01*
X156798184Y-92084916D01*
X156798500Y-92093768D01*
X156798500Y-94324042D01*
X156778815Y-94391081D01*
X156750663Y-94421895D01*
X156660258Y-94492260D01*
X156491833Y-94675217D01*
X156355826Y-94883393D01*
X156255936Y-95111118D01*
X156194892Y-95352175D01*
X156194890Y-95352187D01*
X156174357Y-95599994D01*
X156174357Y-95600005D01*
X156194890Y-95847812D01*
X156194892Y-95847824D01*
X156255936Y-96088881D01*
X156355826Y-96316606D01*
X156491833Y-96524782D01*
X156491836Y-96524785D01*
X156660256Y-96707738D01*
X156743008Y-96772147D01*
X156783821Y-96828857D01*
X156787496Y-96898630D01*
X156752864Y-96959313D01*
X156743014Y-96967848D01*
X156695926Y-97004499D01*
X156660257Y-97032261D01*
X156491833Y-97215217D01*
X156355826Y-97423393D01*
X156355214Y-97424525D01*
X156354842Y-97424898D01*
X156353022Y-97427686D01*
X156352448Y-97427311D01*
X156305991Y-97474112D01*
X156246163Y-97489500D01*
X155720808Y-97489500D01*
X155653769Y-97469815D01*
X155633127Y-97453181D01*
X153931722Y-95751776D01*
X153898237Y-95690453D01*
X153896182Y-95677973D01*
X153895368Y-95670745D01*
X153835789Y-95500478D01*
X153822621Y-95479522D01*
X153794769Y-95435195D01*
X153739816Y-95347738D01*
X153612262Y-95220184D01*
X153597240Y-95210745D01*
X153459523Y-95124211D01*
X153289254Y-95064631D01*
X153289249Y-95064630D01*
X153110004Y-95044435D01*
X153109996Y-95044435D01*
X152930750Y-95064630D01*
X152930745Y-95064631D01*
X152760476Y-95124211D01*
X152607737Y-95220184D01*
X152480184Y-95347737D01*
X152384211Y-95500476D01*
X152324631Y-95670745D01*
X152324630Y-95670750D01*
X152304435Y-95849996D01*
X152304435Y-95850003D01*
X152324630Y-96029249D01*
X152324631Y-96029254D01*
X152384211Y-96199523D01*
X152457780Y-96316606D01*
X152480184Y-96352262D01*
X152607738Y-96479816D01*
X152760478Y-96575789D01*
X152930745Y-96635368D01*
X152937974Y-96636182D01*
X153002388Y-96663246D01*
X153011776Y-96671722D01*
X154985325Y-98645272D01*
X154985326Y-98645273D01*
X154985329Y-98645275D01*
X154985331Y-98645277D01*
X155091873Y-98716465D01*
X155210256Y-98765501D01*
X155210260Y-98765501D01*
X155210261Y-98765502D01*
X155335928Y-98790500D01*
X155335931Y-98790500D01*
X156246163Y-98790500D01*
X156313202Y-98810185D01*
X156352560Y-98852614D01*
X156353022Y-98852313D01*
X156354787Y-98855015D01*
X156355214Y-98855475D01*
X156355823Y-98856600D01*
X156355825Y-98856604D01*
X156355827Y-98856607D01*
X156486742Y-99056988D01*
X156506929Y-99123877D01*
X156487749Y-99191063D01*
X156442367Y-99233637D01*
X156437670Y-99236201D01*
X156322455Y-99322452D01*
X156322452Y-99322455D01*
X156236206Y-99437664D01*
X156236202Y-99437671D01*
X156185908Y-99572517D01*
X156181871Y-99610070D01*
X156179501Y-99632123D01*
X156179500Y-99632135D01*
X156179500Y-99905500D01*
X156159815Y-99972539D01*
X156107011Y-100018294D01*
X156055500Y-100029500D01*
X154356912Y-100029500D01*
X154289873Y-100009815D01*
X154244118Y-99957011D01*
X154239870Y-99946454D01*
X154195789Y-99820478D01*
X154170056Y-99779525D01*
X154099816Y-99667738D01*
X153972262Y-99540184D01*
X153918478Y-99506389D01*
X153819523Y-99444211D01*
X153649254Y-99384631D01*
X153649249Y-99384630D01*
X153470004Y-99364435D01*
X153469996Y-99364435D01*
X153290750Y-99384630D01*
X153290745Y-99384631D01*
X153120476Y-99444211D01*
X152967737Y-99540184D01*
X152840184Y-99667737D01*
X152744211Y-99820476D01*
X152684631Y-99990745D01*
X152684630Y-99990750D01*
X152664435Y-100169996D01*
X152664435Y-100170003D01*
X152684630Y-100349249D01*
X152684631Y-100349254D01*
X152744211Y-100519523D01*
X152826830Y-100651009D01*
X152840184Y-100672262D01*
X152967738Y-100799816D01*
X153120478Y-100895789D01*
X153290745Y-100955368D01*
X153297974Y-100956182D01*
X153362388Y-100983246D01*
X153371776Y-100991722D01*
X153565325Y-101185272D01*
X153565328Y-101185275D01*
X153565331Y-101185277D01*
X153640604Y-101235572D01*
X153671873Y-101256465D01*
X153790256Y-101305501D01*
X153790260Y-101305501D01*
X153790261Y-101305502D01*
X153915928Y-101330500D01*
X153915931Y-101330500D01*
X156055501Y-101330500D01*
X156122540Y-101350185D01*
X156168295Y-101402989D01*
X156179501Y-101454500D01*
X156179501Y-101727876D01*
X156185908Y-101787483D01*
X156236202Y-101922328D01*
X156236206Y-101922335D01*
X156322452Y-102037544D01*
X156322455Y-102037547D01*
X156437664Y-102123793D01*
X156437671Y-102123797D01*
X156572517Y-102174091D01*
X156572516Y-102174091D01*
X156579444Y-102174835D01*
X156632127Y-102180500D01*
X158727872Y-102180499D01*
X158787483Y-102174091D01*
X158922331Y-102123796D01*
X159037546Y-102037546D01*
X159123796Y-101922331D01*
X159174091Y-101787483D01*
X159180500Y-101727873D01*
X159180499Y-99632128D01*
X159174091Y-99572517D01*
X159172284Y-99567673D01*
X159123797Y-99437671D01*
X159123793Y-99437664D01*
X159037547Y-99322455D01*
X159037544Y-99322452D01*
X158922332Y-99236204D01*
X158917635Y-99233639D01*
X158868232Y-99184232D01*
X158853382Y-99115958D01*
X158873257Y-99056989D01*
X159004173Y-98856607D01*
X159104063Y-98628881D01*
X159165108Y-98387821D01*
X159185643Y-98140000D01*
X159168418Y-97932127D01*
X159165109Y-97892187D01*
X159165107Y-97892175D01*
X159104063Y-97651118D01*
X159004173Y-97423393D01*
X158868166Y-97215217D01*
X158841004Y-97185711D01*
X158699744Y-97032262D01*
X158616991Y-96967852D01*
X158576179Y-96911143D01*
X158572504Y-96841370D01*
X158607136Y-96780687D01*
X158616985Y-96772151D01*
X158699744Y-96707738D01*
X158868164Y-96524785D01*
X159004173Y-96316607D01*
X159104063Y-96088881D01*
X159165108Y-95847821D01*
X159168201Y-95810499D01*
X159185643Y-95600005D01*
X159185643Y-95599994D01*
X159165109Y-95352187D01*
X159165107Y-95352175D01*
X159104063Y-95111118D01*
X159004173Y-94883393D01*
X158868166Y-94675217D01*
X158822973Y-94626125D01*
X158699744Y-94492262D01*
X158609337Y-94421895D01*
X158568524Y-94365185D01*
X158561500Y-94324042D01*
X158561500Y-92154499D01*
X158581185Y-92087460D01*
X158633989Y-92041705D01*
X158685500Y-92030499D01*
X158997871Y-92030499D01*
X158997872Y-92030499D01*
X159057483Y-92024091D01*
X159192331Y-91973796D01*
X159307546Y-91887546D01*
X159393796Y-91772331D01*
X159444091Y-91637483D01*
X159450500Y-91577873D01*
X159450499Y-89482128D01*
X159444091Y-89422517D01*
X159428875Y-89381722D01*
X159393797Y-89287671D01*
X159393793Y-89287664D01*
X159307547Y-89172455D01*
X159307544Y-89172452D01*
X159192332Y-89086204D01*
X159187635Y-89083639D01*
X159138232Y-89034232D01*
X159123382Y-88965958D01*
X159143257Y-88906989D01*
X159274173Y-88706607D01*
X159374063Y-88478881D01*
X159435108Y-88237821D01*
X159440081Y-88177804D01*
X159455643Y-87990005D01*
X159455643Y-87989994D01*
X159435109Y-87742187D01*
X159435107Y-87742175D01*
X159374063Y-87501118D01*
X159274173Y-87273393D01*
X159138166Y-87065217D01*
X159095787Y-87019181D01*
X158969744Y-86882262D01*
X158866253Y-86801712D01*
X158825442Y-86745003D01*
X158818655Y-86696176D01*
X158820056Y-86673609D01*
X158161059Y-86014612D01*
X158181591Y-86009111D01*
X158318408Y-85930119D01*
X158430119Y-85818408D01*
X158509111Y-85681591D01*
X158514612Y-85661060D01*
X159173434Y-86319882D01*
X159273731Y-86166369D01*
X159373587Y-85938717D01*
X159434612Y-85697738D01*
X159434614Y-85697729D01*
X159455141Y-85450005D01*
X159455141Y-85449994D01*
X159434614Y-85202270D01*
X159434612Y-85202261D01*
X159373587Y-84961282D01*
X159273731Y-84733630D01*
X159173434Y-84580116D01*
X158514612Y-85238939D01*
X158509111Y-85218409D01*
X158430119Y-85081592D01*
X158318408Y-84969881D01*
X158181591Y-84890889D01*
X158161060Y-84885387D01*
X158820057Y-84226390D01*
X158820056Y-84226389D01*
X158773229Y-84189943D01*
X158554614Y-84071635D01*
X158554603Y-84071630D01*
X158319493Y-83990916D01*
X158074293Y-83950000D01*
X157825707Y-83950000D01*
X157580506Y-83990916D01*
X157345396Y-84071630D01*
X157345390Y-84071632D01*
X157126761Y-84189949D01*
X157079942Y-84226388D01*
X157079942Y-84226390D01*
X157738940Y-84885387D01*
X157718409Y-84890889D01*
X157581592Y-84969881D01*
X157469881Y-85081592D01*
X157390889Y-85218409D01*
X157385387Y-85238940D01*
X156726564Y-84580116D01*
X156626267Y-84733632D01*
X156526412Y-84961282D01*
X156465387Y-85202261D01*
X156465385Y-85202270D01*
X156452331Y-85359818D01*
X156427178Y-85425003D01*
X156370776Y-85466241D01*
X156301033Y-85470439D01*
X156281303Y-85464139D01*
X156209748Y-85434500D01*
X156209738Y-85434497D01*
X156084071Y-85409500D01*
X156084069Y-85409500D01*
X154810808Y-85409500D01*
X154743769Y-85389815D01*
X154723127Y-85373181D01*
X154421722Y-85071776D01*
X154388237Y-85010453D01*
X154386182Y-84997973D01*
X154385368Y-84990745D01*
X154325789Y-84820478D01*
X154320542Y-84812128D01*
X154271219Y-84733630D01*
X154229816Y-84667738D01*
X154102262Y-84540184D01*
X154098584Y-84537873D01*
X153949523Y-84444211D01*
X153779254Y-84384631D01*
X153779249Y-84384630D01*
X153600004Y-84364435D01*
X153599996Y-84364435D01*
X153420750Y-84384630D01*
X153420745Y-84384631D01*
X153250476Y-84444211D01*
X153097737Y-84540184D01*
X152970184Y-84667737D01*
X152874211Y-84820476D01*
X152814631Y-84990745D01*
X152814630Y-84990750D01*
X152794435Y-85169996D01*
X152794435Y-85170002D01*
X152805884Y-85271616D01*
X152793830Y-85340438D01*
X152746480Y-85391818D01*
X152682664Y-85409500D01*
X150955930Y-85409500D01*
X150830262Y-85434497D01*
X150830256Y-85434499D01*
X150711876Y-85483533D01*
X150711867Y-85483538D01*
X150605332Y-85554723D01*
X150605328Y-85554726D01*
X150164725Y-85995328D01*
X150164720Y-85995334D01*
X150143030Y-86027796D01*
X150127610Y-86046585D01*
X150019887Y-86154307D01*
X150019881Y-86154315D01*
X149937505Y-86293606D01*
X149937504Y-86293609D01*
X149892357Y-86449002D01*
X149892356Y-86449008D01*
X149889500Y-86485302D01*
X149227200Y-86485302D01*
X149227167Y-86484877D01*
X149227166Y-86484871D01*
X149182407Y-86330811D01*
X149182406Y-86330808D01*
X149100738Y-86192714D01*
X149100731Y-86192705D01*
X148987294Y-86079268D01*
X148987285Y-86079261D01*
X148849191Y-85997593D01*
X148849188Y-85997591D01*
X148710001Y-85957153D01*
X148710000Y-85957154D01*
X148210000Y-85957154D01*
X148209998Y-85957153D01*
X148070811Y-85997591D01*
X148070810Y-85997592D01*
X148013611Y-86031419D01*
X147945886Y-86048600D01*
X147887371Y-86031419D01*
X147830174Y-85997593D01*
X147829393Y-85997131D01*
X147829392Y-85997130D01*
X147829391Y-85997130D01*
X147829388Y-85997129D01*
X147675208Y-85952335D01*
X147675202Y-85952334D01*
X147639188Y-85949500D01*
X147639181Y-85949500D01*
X147590808Y-85949500D01*
X147523769Y-85929815D01*
X147503127Y-85913181D01*
X147123674Y-85533727D01*
X147123673Y-85533726D01*
X147123669Y-85533723D01*
X147017127Y-85462535D01*
X146986867Y-85450001D01*
X146898744Y-85413499D01*
X146898738Y-85413497D01*
X146773071Y-85388500D01*
X146773069Y-85388500D01*
X143333141Y-85388500D01*
X143333139Y-85388500D01*
X143207471Y-85413497D01*
X143207465Y-85413499D01*
X143156768Y-85434499D01*
X143156767Y-85434499D01*
X143089086Y-85462532D01*
X142982536Y-85533726D01*
X142982535Y-85533727D01*
X141353083Y-87163181D01*
X141291760Y-87196666D01*
X141265402Y-87199500D01*
X140924500Y-87199500D01*
X140857461Y-87179815D01*
X140811706Y-87127011D01*
X140800500Y-87075501D01*
X140800500Y-87019181D01*
X140800499Y-86930807D01*
X140820183Y-86863768D01*
X140836813Y-86843131D01*
X143363127Y-84316819D01*
X143424450Y-84283334D01*
X143450808Y-84280500D01*
X152764071Y-84280500D01*
X152848615Y-84263682D01*
X152889744Y-84255501D01*
X153008127Y-84206465D01*
X153114669Y-84135277D01*
X156973127Y-80276817D01*
X157034450Y-80243333D01*
X157060808Y-80240499D01*
X158637871Y-80240499D01*
X158637872Y-80240499D01*
X158697483Y-80234091D01*
X158832331Y-80183796D01*
X158947546Y-80097546D01*
X159033796Y-79982331D01*
X159084091Y-79847483D01*
X159090500Y-79787873D01*
X159090499Y-77692128D01*
X159084091Y-77632517D01*
X159051204Y-77544343D01*
X159033797Y-77497671D01*
X159033793Y-77497664D01*
X158947547Y-77382455D01*
X158947544Y-77382452D01*
X158832335Y-77296206D01*
X158832328Y-77296202D01*
X158697482Y-77245908D01*
X158697483Y-77245908D01*
X158637883Y-77239501D01*
X158637881Y-77239500D01*
X158637873Y-77239500D01*
X158637864Y-77239500D01*
X156542129Y-77239500D01*
X156542123Y-77239501D01*
X156482516Y-77245908D01*
X156347671Y-77296202D01*
X156347664Y-77296206D01*
X156232455Y-77382452D01*
X156232452Y-77382455D01*
X156146206Y-77497664D01*
X156141953Y-77505454D01*
X156138750Y-77503705D01*
X156107200Y-77545800D01*
X156041721Y-77570178D01*
X155973457Y-77555286D01*
X155956786Y-77544343D01*
X155947751Y-77537311D01*
X155873509Y-77479526D01*
X155694136Y-77382454D01*
X155654811Y-77361172D01*
X155654802Y-77361169D01*
X155419616Y-77280429D01*
X155174335Y-77239500D01*
X154925665Y-77239500D01*
X154680383Y-77280429D01*
X154445197Y-77361169D01*
X154445188Y-77361172D01*
X154226493Y-77479524D01*
X154030257Y-77632261D01*
X153871230Y-77805010D01*
X153811342Y-77841001D01*
X153741504Y-77838900D01*
X153688770Y-77805010D01*
X153584855Y-77692129D01*
X153529744Y-77632262D01*
X153333509Y-77479526D01*
X153333507Y-77479525D01*
X153333506Y-77479524D01*
X153114811Y-77361172D01*
X153114802Y-77361169D01*
X152879616Y-77280429D01*
X152634335Y-77239500D01*
X152385665Y-77239500D01*
X152140383Y-77280429D01*
X151905197Y-77361169D01*
X151905188Y-77361172D01*
X151686493Y-77479524D01*
X151490257Y-77632261D01*
X151321833Y-77815217D01*
X151185826Y-78023393D01*
X151085936Y-78251118D01*
X151024892Y-78492175D01*
X151024890Y-78492187D01*
X151004357Y-78739994D01*
X151004357Y-78740005D01*
X151024890Y-78987812D01*
X151024892Y-78987824D01*
X151085936Y-79228881D01*
X151185826Y-79456606D01*
X151321833Y-79664782D01*
X151321836Y-79664785D01*
X151490256Y-79847738D01*
X151686491Y-80000474D01*
X151905190Y-80118828D01*
X152140386Y-80199571D01*
X152385665Y-80240500D01*
X152634335Y-80240500D01*
X152879614Y-80199571D01*
X153114810Y-80118828D01*
X153333509Y-80000474D01*
X153529744Y-79847738D01*
X153688771Y-79674988D01*
X153748657Y-79638999D01*
X153818495Y-79641099D01*
X153871228Y-79674988D01*
X154030256Y-79847738D01*
X154226491Y-80000474D01*
X154445190Y-80118828D01*
X154680386Y-80199571D01*
X154897065Y-80235727D01*
X154959949Y-80266177D01*
X154996389Y-80325792D01*
X154994814Y-80395644D01*
X154964336Y-80445717D01*
X152466873Y-82943181D01*
X152405550Y-82976666D01*
X152379192Y-82979500D01*
X148014500Y-82979500D01*
X147947461Y-82959815D01*
X147901706Y-82907011D01*
X147890500Y-82855500D01*
X147890499Y-82500831D01*
X147890498Y-82500806D01*
X147890382Y-82499332D01*
X147890000Y-82489607D01*
X147890000Y-81937154D01*
X148390000Y-81937154D01*
X148390000Y-82500000D01*
X148909931Y-82500000D01*
X148907167Y-82464877D01*
X148907166Y-82464871D01*
X148862407Y-82310811D01*
X148862406Y-82310808D01*
X148780738Y-82172714D01*
X148780731Y-82172705D01*
X148667294Y-82059268D01*
X148667285Y-82059261D01*
X148529191Y-81977593D01*
X148529188Y-81977591D01*
X148390001Y-81937153D01*
X148390000Y-81937154D01*
X147890000Y-81937154D01*
X147889998Y-81937153D01*
X147750811Y-81977591D01*
X147750810Y-81977592D01*
X147693611Y-82011419D01*
X147625886Y-82028600D01*
X147567371Y-82011419D01*
X147534927Y-81992232D01*
X147509393Y-81977131D01*
X147509392Y-81977130D01*
X147509391Y-81977130D01*
X147509388Y-81977129D01*
X147355208Y-81932335D01*
X147355202Y-81932334D01*
X147319181Y-81929500D01*
X146920830Y-81929500D01*
X146920808Y-81929501D01*
X146884799Y-81932334D01*
X146730606Y-81977131D01*
X146705073Y-81992232D01*
X146641952Y-82009500D01*
X145379596Y-82009500D01*
X145312557Y-81989815D01*
X145291915Y-81973181D01*
X145287603Y-81968869D01*
X145287595Y-81968863D01*
X145149393Y-81887131D01*
X145149388Y-81887129D01*
X144995208Y-81842335D01*
X144995202Y-81842334D01*
X144959181Y-81839500D01*
X144560830Y-81839500D01*
X144560808Y-81839501D01*
X144524794Y-81842335D01*
X144370611Y-81887129D01*
X144370604Y-81887132D01*
X144313119Y-81921128D01*
X144245395Y-81938309D01*
X144186881Y-81921128D01*
X144129395Y-81887132D01*
X144129388Y-81887129D01*
X143975208Y-81842335D01*
X143975202Y-81842334D01*
X143939188Y-81839500D01*
X143599807Y-81839500D01*
X143532768Y-81819815D01*
X143487013Y-81767011D01*
X143477069Y-81697853D01*
X143506094Y-81634297D01*
X143512112Y-81627833D01*
X144365277Y-80774669D01*
X144436465Y-80668127D01*
X144485501Y-80549744D01*
X144485550Y-80549500D01*
X144510500Y-80424069D01*
X144510500Y-79701238D01*
X144530185Y-79634199D01*
X144582989Y-79588444D01*
X144644230Y-79577620D01*
X144644793Y-79577664D01*
X144644796Y-79577665D01*
X144680819Y-79580500D01*
X145079180Y-79580499D01*
X145115204Y-79577665D01*
X145269393Y-79532869D01*
X145407598Y-79451135D01*
X145521135Y-79337598D01*
X145602869Y-79199393D01*
X145647665Y-79045204D01*
X145650500Y-79009181D01*
X145650499Y-78510820D01*
X145647665Y-78474796D01*
X145602869Y-78320607D01*
X145521135Y-78182402D01*
X145521133Y-78182400D01*
X145521130Y-78182396D01*
X145407603Y-78068869D01*
X145407595Y-78068863D01*
X145269393Y-77987131D01*
X145269388Y-77987129D01*
X145115208Y-77942335D01*
X145115202Y-77942334D01*
X145079181Y-77939500D01*
X144680830Y-77939500D01*
X144680808Y-77939501D01*
X144644794Y-77942335D01*
X144490611Y-77987129D01*
X144490604Y-77987132D01*
X144433119Y-78021128D01*
X144365395Y-78038309D01*
X144306881Y-78021128D01*
X144249395Y-77987132D01*
X144249388Y-77987129D01*
X144095208Y-77942335D01*
X144095202Y-77942334D01*
X144059181Y-77939500D01*
X143660830Y-77939500D01*
X143660808Y-77939501D01*
X143624794Y-77942335D01*
X143470611Y-77987129D01*
X143470606Y-77987131D01*
X143332404Y-78068863D01*
X143332396Y-78068869D01*
X143218869Y-78182396D01*
X143218863Y-78182404D01*
X143137131Y-78320606D01*
X143137129Y-78320611D01*
X143092335Y-78474791D01*
X143092334Y-78474797D01*
X143089500Y-78510811D01*
X143089500Y-79009169D01*
X143089501Y-79009191D01*
X143092334Y-79045200D01*
X143137131Y-79199393D01*
X143192232Y-79292563D01*
X143209500Y-79355684D01*
X143209500Y-80039191D01*
X143189815Y-80106230D01*
X143173181Y-80126872D01*
X141005843Y-82294209D01*
X140944520Y-82327694D01*
X140874828Y-82322710D01*
X140818895Y-82280838D01*
X140794872Y-82219781D01*
X140794091Y-82212518D01*
X140794091Y-82212517D01*
X140781340Y-82178332D01*
X140776357Y-82108642D01*
X140781340Y-82091669D01*
X140794091Y-82057483D01*
X140800500Y-81997873D01*
X140800499Y-81002128D01*
X140794091Y-80942517D01*
X140781340Y-80908332D01*
X140776357Y-80838642D01*
X140781340Y-80821669D01*
X140794091Y-80787483D01*
X140800500Y-80727873D01*
X140800499Y-79732128D01*
X140794091Y-79672517D01*
X140781340Y-79638332D01*
X140776357Y-79568642D01*
X140781340Y-79551669D01*
X140794091Y-79517483D01*
X140800500Y-79457873D01*
X140800499Y-78462128D01*
X140794091Y-78402517D01*
X140781340Y-78368332D01*
X140776357Y-78298642D01*
X140781340Y-78281669D01*
X140794091Y-78247483D01*
X140800500Y-78187873D01*
X140800499Y-77192128D01*
X140794091Y-77132517D01*
X140781340Y-77098332D01*
X140776357Y-77028642D01*
X140781340Y-77011669D01*
X140794091Y-76977483D01*
X140800500Y-76917873D01*
X140800499Y-75922128D01*
X140794091Y-75862517D01*
X140781073Y-75827616D01*
X140776090Y-75757926D01*
X140781075Y-75740949D01*
X140793597Y-75707375D01*
X140793598Y-75707372D01*
X140799999Y-75647844D01*
X140800000Y-75647827D01*
X140800000Y-75400000D01*
X138300000Y-75400000D01*
X138300000Y-75647844D01*
X138306401Y-75707372D01*
X138306403Y-75707379D01*
X138318925Y-75740952D01*
X138323909Y-75810643D01*
X138318925Y-75827617D01*
X138305909Y-75862514D01*
X138305908Y-75862516D01*
X138299501Y-75922116D01*
X138299501Y-75922123D01*
X138299500Y-75922135D01*
X138299500Y-76917870D01*
X138299501Y-76917876D01*
X138305908Y-76977481D01*
X138318659Y-77011669D01*
X138323642Y-77081361D01*
X138318659Y-77098331D01*
X138305908Y-77132518D01*
X138302951Y-77160028D01*
X138299501Y-77192123D01*
X138299500Y-77192135D01*
X138299500Y-78187870D01*
X138299501Y-78187876D01*
X138305908Y-78247481D01*
X138318659Y-78281669D01*
X138323642Y-78351361D01*
X138318659Y-78368331D01*
X138305908Y-78402518D01*
X138299501Y-78462116D01*
X138299501Y-78462123D01*
X138299500Y-78462135D01*
X138299500Y-79457870D01*
X138299501Y-79457876D01*
X138305908Y-79517481D01*
X138318659Y-79551669D01*
X138323642Y-79621361D01*
X138318659Y-79638331D01*
X138305908Y-79672518D01*
X138299501Y-79732116D01*
X138299501Y-79732123D01*
X138299500Y-79732135D01*
X138299500Y-80727870D01*
X138299501Y-80727876D01*
X138305908Y-80787481D01*
X138318659Y-80821669D01*
X138323642Y-80891361D01*
X138318659Y-80908331D01*
X138305908Y-80942518D01*
X138301353Y-80984891D01*
X138299501Y-81002123D01*
X138299500Y-81002135D01*
X138299500Y-81997870D01*
X138299501Y-81997876D01*
X138305908Y-82057481D01*
X138318659Y-82091669D01*
X138323642Y-82161361D01*
X138318659Y-82178331D01*
X138305908Y-82212518D01*
X138302954Y-82240000D01*
X138299501Y-82272123D01*
X138299500Y-82272135D01*
X138299500Y-83267870D01*
X138299501Y-83267876D01*
X138305908Y-83327481D01*
X138318659Y-83361669D01*
X138323642Y-83431361D01*
X138318659Y-83448331D01*
X138305908Y-83482518D01*
X138299501Y-83542116D01*
X138299501Y-83542123D01*
X138299500Y-83542135D01*
X138299500Y-84537870D01*
X138299501Y-84537876D01*
X138305908Y-84597481D01*
X138318659Y-84631669D01*
X138323642Y-84701361D01*
X138318659Y-84718331D01*
X138305908Y-84752518D01*
X138299501Y-84812116D01*
X138299501Y-84812123D01*
X138299500Y-84812135D01*
X138299500Y-85807870D01*
X138299501Y-85807876D01*
X138305908Y-85867481D01*
X138318659Y-85901669D01*
X138323642Y-85971361D01*
X138318659Y-85988331D01*
X138305908Y-86022518D01*
X138299808Y-86079261D01*
X138299501Y-86082123D01*
X138299500Y-86082135D01*
X138299500Y-87077870D01*
X138299501Y-87077876D01*
X138305908Y-87137481D01*
X138318659Y-87171669D01*
X138323642Y-87241361D01*
X138318659Y-87258331D01*
X138305908Y-87292518D01*
X138299987Y-87347598D01*
X138299501Y-87352123D01*
X138299500Y-87352135D01*
X138299500Y-88347870D01*
X138299501Y-88347876D01*
X138305908Y-88407481D01*
X138318659Y-88441669D01*
X138323642Y-88511361D01*
X138318659Y-88528331D01*
X138305908Y-88562518D01*
X138299561Y-88621560D01*
X138299501Y-88622123D01*
X138299500Y-88622135D01*
X138299500Y-89617870D01*
X138299501Y-89617876D01*
X138305908Y-89677481D01*
X138318659Y-89711669D01*
X138323642Y-89781361D01*
X138318659Y-89798331D01*
X138305908Y-89832518D01*
X138302005Y-89868824D01*
X138299501Y-89892123D01*
X138299500Y-89892135D01*
X138299500Y-90887870D01*
X138299501Y-90887876D01*
X138305908Y-90947481D01*
X138318659Y-90981669D01*
X138323642Y-91051361D01*
X138318659Y-91068331D01*
X138305908Y-91102518D01*
X138299501Y-91162116D01*
X138299501Y-91162123D01*
X138299500Y-91162135D01*
X138299500Y-92157870D01*
X138299501Y-92157876D01*
X138305908Y-92217483D01*
X138356202Y-92352328D01*
X138356206Y-92352335D01*
X138442452Y-92467544D01*
X138442455Y-92467547D01*
X138557664Y-92553793D01*
X138557671Y-92553797D01*
X138692517Y-92604091D01*
X138692516Y-92604091D01*
X138699444Y-92604835D01*
X138752127Y-92610500D01*
X140347872Y-92610499D01*
X140407483Y-92604091D01*
X140542331Y-92553796D01*
X140657546Y-92467546D01*
X140743796Y-92352331D01*
X140794091Y-92217483D01*
X140800500Y-92157873D01*
X140800499Y-91344226D01*
X140820183Y-91277188D01*
X140872987Y-91231433D01*
X140942146Y-91221489D01*
X140990470Y-91239233D01*
X141019654Y-91257571D01*
X141080475Y-91295788D01*
X141250745Y-91355368D01*
X141250750Y-91355369D01*
X141429996Y-91375565D01*
X141430000Y-91375565D01*
X141430004Y-91375565D01*
X141609249Y-91355369D01*
X141609252Y-91355368D01*
X141609255Y-91355368D01*
X141779522Y-91295789D01*
X141932262Y-91199816D01*
X142059816Y-91072262D01*
X142155789Y-90919522D01*
X142215368Y-90749255D01*
X142226530Y-90650188D01*
X142235565Y-90570003D01*
X142235565Y-90569996D01*
X142215369Y-90390750D01*
X142215368Y-90390745D01*
X142211289Y-90379089D01*
X142155789Y-90220478D01*
X142059816Y-90067738D01*
X141932262Y-89940184D01*
X141779522Y-89844211D01*
X141779521Y-89844210D01*
X141779517Y-89844208D01*
X141776083Y-89842554D01*
X141774246Y-89840895D01*
X141773626Y-89840506D01*
X141773694Y-89840397D01*
X141724223Y-89795732D01*
X141705910Y-89728305D01*
X141726958Y-89661681D01*
X141760995Y-89627731D01*
X141764669Y-89625277D01*
X142008225Y-89381719D01*
X142069544Y-89348237D01*
X142082019Y-89346183D01*
X142089255Y-89345368D01*
X142259522Y-89285789D01*
X142412262Y-89189816D01*
X142539816Y-89062262D01*
X142635789Y-88909522D01*
X142695368Y-88739255D01*
X142697112Y-88723780D01*
X142715565Y-88560003D01*
X142715565Y-88559996D01*
X142695369Y-88380750D01*
X142695368Y-88380745D01*
X142683865Y-88347872D01*
X142635789Y-88210478D01*
X142539816Y-88057738D01*
X142506797Y-88024719D01*
X142473312Y-87963396D01*
X142478296Y-87893704D01*
X142506793Y-87849362D01*
X142785336Y-87570818D01*
X142846657Y-87537335D01*
X142916349Y-87542319D01*
X142972282Y-87584191D01*
X142976117Y-87589610D01*
X143015293Y-87648241D01*
X143015296Y-87648245D01*
X143544856Y-88177804D01*
X143578341Y-88239127D01*
X143573357Y-88308818D01*
X143554130Y-88342788D01*
X143550187Y-88347732D01*
X143454211Y-88500476D01*
X143394631Y-88670745D01*
X143394630Y-88670750D01*
X143374435Y-88849996D01*
X143374435Y-88850003D01*
X143394630Y-89029249D01*
X143394632Y-89029257D01*
X143396483Y-89034546D01*
X143400044Y-89104325D01*
X143365315Y-89164952D01*
X143303322Y-89197179D01*
X143279443Y-89199500D01*
X143222130Y-89199500D01*
X143222123Y-89199501D01*
X143162516Y-89205908D01*
X143027671Y-89256202D01*
X143027664Y-89256206D01*
X142912455Y-89342452D01*
X142912452Y-89342455D01*
X142826206Y-89457664D01*
X142826202Y-89457671D01*
X142775908Y-89592517D01*
X142769501Y-89652116D01*
X142769500Y-89652135D01*
X142769500Y-91947870D01*
X142769501Y-91947876D01*
X142775908Y-92007483D01*
X142826202Y-92142328D01*
X142826206Y-92142335D01*
X142912452Y-92257544D01*
X142912455Y-92257547D01*
X143027664Y-92343793D01*
X143027671Y-92343797D01*
X143162517Y-92394091D01*
X143162516Y-92394091D01*
X143169444Y-92394835D01*
X143222127Y-92400500D01*
X145517872Y-92400499D01*
X145577483Y-92394091D01*
X145712331Y-92343796D01*
X145827546Y-92257546D01*
X145884928Y-92180893D01*
X145940860Y-92139024D01*
X146010552Y-92134040D01*
X146048981Y-92149478D01*
X146062685Y-92157876D01*
X146181140Y-92230466D01*
X146413889Y-92326873D01*
X146658852Y-92385683D01*
X146732632Y-92391489D01*
X146797917Y-92416371D01*
X146839388Y-92472602D01*
X146843875Y-92542328D01*
X146810581Y-92602787D01*
X146175295Y-93238073D01*
X146078822Y-93382456D01*
X146012377Y-93542871D01*
X146012374Y-93542883D01*
X145979557Y-93707865D01*
X145979556Y-93707872D01*
X145978501Y-93713174D01*
X145978500Y-93713184D01*
X145978500Y-99543759D01*
X145958815Y-99610798D01*
X145927382Y-99644079D01*
X145915755Y-99652526D01*
X145849948Y-99676004D01*
X145781895Y-99660177D01*
X145733202Y-99610070D01*
X145726691Y-99595538D01*
X145716298Y-99567673D01*
X145716293Y-99567664D01*
X145630047Y-99452455D01*
X145630044Y-99452452D01*
X145514835Y-99366206D01*
X145514828Y-99366202D01*
X145379982Y-99315908D01*
X145379983Y-99315908D01*
X145320383Y-99309501D01*
X145320381Y-99309500D01*
X145320373Y-99309500D01*
X145320364Y-99309500D01*
X143319629Y-99309500D01*
X143319623Y-99309501D01*
X143260016Y-99315908D01*
X143125171Y-99366202D01*
X143125164Y-99366206D01*
X143009955Y-99452452D01*
X143009952Y-99452455D01*
X142923706Y-99567664D01*
X142923702Y-99567671D01*
X142873408Y-99702517D01*
X142869580Y-99738127D01*
X142867000Y-99762127D01*
X142867000Y-100606466D01*
X142867001Y-101385500D01*
X142847316Y-101452539D01*
X142794513Y-101498294D01*
X142743001Y-101509500D01*
X138345836Y-101509500D01*
X138278797Y-101489815D01*
X138233042Y-101437011D01*
X138223098Y-101367853D01*
X138232280Y-101335691D01*
X138283587Y-101218720D01*
X138283587Y-101218718D01*
X138344612Y-100977738D01*
X138344614Y-100977729D01*
X138365141Y-100730005D01*
X138365141Y-100729994D01*
X138344614Y-100482270D01*
X138344612Y-100482261D01*
X138283587Y-100241282D01*
X138183731Y-100013630D01*
X138083434Y-99860116D01*
X137424611Y-100518938D01*
X137419111Y-100498409D01*
X137340119Y-100361592D01*
X137228408Y-100249881D01*
X137091591Y-100170889D01*
X137071059Y-100165387D01*
X137730057Y-99506389D01*
X137683229Y-99469943D01*
X137464614Y-99351635D01*
X137464603Y-99351630D01*
X137229493Y-99270916D01*
X136984293Y-99230000D01*
X136735707Y-99230000D01*
X136490506Y-99270916D01*
X136255396Y-99351630D01*
X136255385Y-99351635D01*
X136036771Y-99469942D01*
X136036769Y-99469943D01*
X135953397Y-99534835D01*
X135888403Y-99560477D01*
X135819863Y-99546910D01*
X135769538Y-99498442D01*
X135768120Y-99495413D01*
X135768047Y-99495454D01*
X135763793Y-99487664D01*
X135677547Y-99372455D01*
X135677544Y-99372452D01*
X135562335Y-99286206D01*
X135562328Y-99286202D01*
X135427482Y-99235908D01*
X135427483Y-99235908D01*
X135367883Y-99229501D01*
X135367881Y-99229500D01*
X135367873Y-99229500D01*
X135367864Y-99229500D01*
X133272129Y-99229500D01*
X133272123Y-99229501D01*
X133212516Y-99235908D01*
X133077671Y-99286202D01*
X133077664Y-99286206D01*
X132962455Y-99372452D01*
X132962452Y-99372455D01*
X132876206Y-99487664D01*
X132876202Y-99487671D01*
X132825908Y-99622517D01*
X132821047Y-99667737D01*
X132819500Y-99682127D01*
X132819500Y-100593390D01*
X132819501Y-101385500D01*
X132799816Y-101452539D01*
X132747013Y-101498294D01*
X132695501Y-101509500D01*
X132127491Y-101509500D01*
X132060452Y-101489815D01*
X132039810Y-101473181D01*
X127598890Y-97032261D01*
X124870994Y-94304364D01*
X124837510Y-94243043D01*
X124840000Y-94208224D01*
X124840000Y-93160000D01*
X124140000Y-93160000D01*
X124140000Y-93274008D01*
X124120315Y-93341047D01*
X124067511Y-93386802D01*
X123998353Y-93396746D01*
X123934797Y-93367721D01*
X123928319Y-93361689D01*
X123180706Y-92614076D01*
X123147221Y-92552753D01*
X123152205Y-92483061D01*
X123169119Y-92452086D01*
X123243796Y-92352331D01*
X123294091Y-92217483D01*
X123300500Y-92157873D01*
X123300500Y-92112155D01*
X124140000Y-92112155D01*
X124140000Y-92660000D01*
X124840000Y-92660000D01*
X124840000Y-91660000D01*
X125340000Y-91660000D01*
X125340000Y-94160000D01*
X125587828Y-94160000D01*
X125587844Y-94159999D01*
X125647372Y-94153598D01*
X125647375Y-94153597D01*
X125680949Y-94141075D01*
X125750640Y-94136089D01*
X125767619Y-94141075D01*
X125802511Y-94154089D01*
X125802517Y-94154091D01*
X125862127Y-94160500D01*
X126118430Y-94160499D01*
X126185469Y-94180183D01*
X126206111Y-94196818D01*
X126547917Y-94538624D01*
X126877004Y-94867710D01*
X126910489Y-94929033D01*
X126912543Y-94969274D01*
X126894435Y-95129995D01*
X126894435Y-95130003D01*
X126914630Y-95309249D01*
X126914631Y-95309254D01*
X126974211Y-95479523D01*
X127066942Y-95627102D01*
X127070184Y-95632262D01*
X127197738Y-95759816D01*
X127278401Y-95810500D01*
X127341269Y-95850003D01*
X127350478Y-95855789D01*
X127454712Y-95892262D01*
X127520745Y-95915368D01*
X127520750Y-95915369D01*
X127699996Y-95935565D01*
X127700000Y-95935565D01*
X127700004Y-95935565D01*
X127879249Y-95915369D01*
X127879252Y-95915368D01*
X127879255Y-95915368D01*
X128049522Y-95855789D01*
X128202262Y-95759816D01*
X128329816Y-95632262D01*
X128425789Y-95479522D01*
X128485368Y-95309255D01*
X128489679Y-95270993D01*
X128505565Y-95130003D01*
X128505565Y-95129996D01*
X128485369Y-94950750D01*
X128485368Y-94950745D01*
X128425788Y-94780475D01*
X128349264Y-94658690D01*
X128332640Y-94616910D01*
X128325501Y-94581017D01*
X128276465Y-94462634D01*
X128276464Y-94462633D01*
X128276461Y-94462627D01*
X128205276Y-94356092D01*
X128205273Y-94356088D01*
X128204543Y-94355358D01*
X128204282Y-94354881D01*
X128201411Y-94351382D01*
X128202074Y-94350837D01*
X128171058Y-94294035D01*
X128176042Y-94224343D01*
X128217914Y-94168410D01*
X128283378Y-94143993D01*
X128335559Y-94151496D01*
X128342517Y-94154091D01*
X128342516Y-94154091D01*
X128349444Y-94154835D01*
X128402127Y-94160500D01*
X129397872Y-94160499D01*
X129457483Y-94154091D01*
X129491667Y-94141340D01*
X129561358Y-94136357D01*
X129578327Y-94141338D01*
X129612517Y-94154091D01*
X129672127Y-94160500D01*
X130667872Y-94160499D01*
X130727483Y-94154091D01*
X130761667Y-94141340D01*
X130831358Y-94136357D01*
X130848327Y-94141338D01*
X130882517Y-94154091D01*
X130942127Y-94160500D01*
X131937872Y-94160499D01*
X131997483Y-94154091D01*
X132031667Y-94141340D01*
X132101358Y-94136357D01*
X132118327Y-94141338D01*
X132152517Y-94154091D01*
X132212127Y-94160500D01*
X133207872Y-94160499D01*
X133267483Y-94154091D01*
X133301667Y-94141340D01*
X133371358Y-94136357D01*
X133388327Y-94141338D01*
X133422517Y-94154091D01*
X133482127Y-94160500D01*
X134477872Y-94160499D01*
X134477878Y-94160498D01*
X134477882Y-94160498D01*
X134481559Y-94160103D01*
X134550319Y-94172507D01*
X134601457Y-94220116D01*
X134616434Y-94259199D01*
X134617806Y-94266096D01*
X134617806Y-94266098D01*
X134624497Y-94299736D01*
X134624499Y-94299744D01*
X134655963Y-94375706D01*
X134673535Y-94418127D01*
X134723070Y-94492262D01*
X134744726Y-94524673D01*
X134744727Y-94524674D01*
X135708277Y-95488223D01*
X135741762Y-95549546D01*
X135743815Y-95562012D01*
X135744630Y-95569246D01*
X135744632Y-95569255D01*
X135804210Y-95739521D01*
X135847014Y-95807643D01*
X135900184Y-95892262D01*
X136027738Y-96019816D01*
X136180478Y-96115789D01*
X136350745Y-96175368D01*
X136350750Y-96175369D01*
X136529996Y-96195565D01*
X136530000Y-96195565D01*
X136530004Y-96195565D01*
X136709249Y-96175369D01*
X136709252Y-96175368D01*
X136709255Y-96175368D01*
X136879522Y-96115789D01*
X137032262Y-96019816D01*
X137159816Y-95892262D01*
X137255789Y-95739522D01*
X137315368Y-95569255D01*
X137315369Y-95569246D01*
X137335565Y-95390003D01*
X137335565Y-95389996D01*
X137315369Y-95210750D01*
X137315368Y-95210745D01*
X137264241Y-95064632D01*
X137255789Y-95040478D01*
X137220700Y-94984635D01*
X137216582Y-94978080D01*
X137159816Y-94887738D01*
X137037380Y-94765302D01*
X143179500Y-94765302D01*
X143179500Y-95234697D01*
X143182356Y-95270991D01*
X143182357Y-95270997D01*
X143227504Y-95426390D01*
X143227505Y-95426393D01*
X143309881Y-95565684D01*
X143309887Y-95565692D01*
X143424307Y-95680112D01*
X143424311Y-95680115D01*
X143424313Y-95680117D01*
X143563605Y-95762494D01*
X143604587Y-95774400D01*
X143719002Y-95807642D01*
X143719005Y-95807642D01*
X143719007Y-95807643D01*
X143755310Y-95810500D01*
X143755318Y-95810500D01*
X144164682Y-95810500D01*
X144164690Y-95810500D01*
X144200993Y-95807643D01*
X144200995Y-95807642D01*
X144200997Y-95807642D01*
X144241975Y-95795736D01*
X144356395Y-95762494D01*
X144377369Y-95750089D01*
X144445088Y-95732906D01*
X144503613Y-95750090D01*
X144523803Y-95762031D01*
X144670000Y-95804504D01*
X144670000Y-95804503D01*
X145170000Y-95804503D01*
X145316195Y-95762031D01*
X145455374Y-95679721D01*
X145455383Y-95679714D01*
X145569714Y-95565383D01*
X145569721Y-95565374D01*
X145652031Y-95426195D01*
X145652033Y-95426190D01*
X145697144Y-95270918D01*
X145697145Y-95270912D01*
X145698790Y-95250000D01*
X145170000Y-95250000D01*
X145170000Y-95804503D01*
X144670000Y-95804503D01*
X144670000Y-95498352D01*
X144687267Y-95435233D01*
X144692494Y-95426395D01*
X144726529Y-95309249D01*
X144737642Y-95270997D01*
X144737643Y-95270991D01*
X144740499Y-95234697D01*
X144740500Y-95234690D01*
X144740500Y-94765310D01*
X144737643Y-94729007D01*
X144734884Y-94719512D01*
X144692495Y-94573608D01*
X144692492Y-94573600D01*
X144687266Y-94564763D01*
X144670000Y-94501645D01*
X144670000Y-94195494D01*
X145170000Y-94195494D01*
X145170000Y-94750000D01*
X145698790Y-94750000D01*
X145697145Y-94729089D01*
X145652031Y-94573804D01*
X145569721Y-94434625D01*
X145569714Y-94434616D01*
X145455383Y-94320285D01*
X145455374Y-94320278D01*
X145316193Y-94237967D01*
X145316190Y-94237965D01*
X145170001Y-94195493D01*
X145170000Y-94195494D01*
X144670000Y-94195494D01*
X144669998Y-94195493D01*
X144523809Y-94237965D01*
X144523806Y-94237967D01*
X144503608Y-94249912D01*
X144435884Y-94267092D01*
X144377370Y-94249910D01*
X144356397Y-94237507D01*
X144356390Y-94237504D01*
X144200997Y-94192357D01*
X144200991Y-94192356D01*
X144164697Y-94189500D01*
X144164690Y-94189500D01*
X143755310Y-94189500D01*
X143755302Y-94189500D01*
X143719008Y-94192356D01*
X143719002Y-94192357D01*
X143563609Y-94237504D01*
X143563606Y-94237505D01*
X143424315Y-94319881D01*
X143424307Y-94319887D01*
X143309887Y-94434307D01*
X143309881Y-94434315D01*
X143227505Y-94573606D01*
X143227504Y-94573609D01*
X143182357Y-94729002D01*
X143182356Y-94729008D01*
X143179500Y-94765302D01*
X137037380Y-94765302D01*
X137032262Y-94760184D01*
X136967533Y-94719512D01*
X136879521Y-94664210D01*
X136709255Y-94604632D01*
X136709246Y-94604630D01*
X136702012Y-94603815D01*
X136637600Y-94576744D01*
X136628223Y-94568277D01*
X136432126Y-94372180D01*
X136398641Y-94310857D01*
X136403625Y-94241165D01*
X136445497Y-94185232D01*
X136510961Y-94160815D01*
X136519807Y-94160499D01*
X137017871Y-94160499D01*
X137017872Y-94160499D01*
X137077483Y-94154091D01*
X137212331Y-94103796D01*
X137327546Y-94017546D01*
X137413796Y-93902331D01*
X137464091Y-93767483D01*
X137470500Y-93707873D01*
X137470499Y-92112128D01*
X137464091Y-92052517D01*
X137460058Y-92041705D01*
X137413797Y-91917671D01*
X137413793Y-91917664D01*
X137327547Y-91802455D01*
X137327544Y-91802452D01*
X137212335Y-91716206D01*
X137212328Y-91716202D01*
X137077482Y-91665908D01*
X137077483Y-91665908D01*
X137017883Y-91659501D01*
X137017881Y-91659500D01*
X137017873Y-91659500D01*
X137017864Y-91659500D01*
X136022129Y-91659500D01*
X136022123Y-91659501D01*
X135962518Y-91665908D01*
X135928331Y-91678659D01*
X135858639Y-91683642D01*
X135841669Y-91678659D01*
X135824140Y-91672121D01*
X135807483Y-91665909D01*
X135807482Y-91665908D01*
X135747883Y-91659501D01*
X135747881Y-91659500D01*
X135747873Y-91659500D01*
X135747864Y-91659500D01*
X134752129Y-91659500D01*
X134752123Y-91659501D01*
X134692518Y-91665908D01*
X134658331Y-91678659D01*
X134588639Y-91683642D01*
X134571669Y-91678659D01*
X134554140Y-91672121D01*
X134537483Y-91665909D01*
X134537482Y-91665908D01*
X134477883Y-91659501D01*
X134477881Y-91659500D01*
X134477873Y-91659500D01*
X134477864Y-91659500D01*
X133482129Y-91659500D01*
X133482123Y-91659501D01*
X133422518Y-91665908D01*
X133388331Y-91678659D01*
X133318639Y-91683642D01*
X133301669Y-91678659D01*
X133284140Y-91672121D01*
X133267483Y-91665909D01*
X133267482Y-91665908D01*
X133207883Y-91659501D01*
X133207881Y-91659500D01*
X133207873Y-91659500D01*
X133207864Y-91659500D01*
X132212129Y-91659500D01*
X132212123Y-91659501D01*
X132152518Y-91665908D01*
X132118331Y-91678659D01*
X132048639Y-91683642D01*
X132031669Y-91678659D01*
X132014140Y-91672121D01*
X131997483Y-91665909D01*
X131997482Y-91665908D01*
X131937883Y-91659501D01*
X131937881Y-91659500D01*
X131937873Y-91659500D01*
X131937864Y-91659500D01*
X130942129Y-91659500D01*
X130942123Y-91659501D01*
X130882518Y-91665908D01*
X130848331Y-91678659D01*
X130778639Y-91683642D01*
X130761669Y-91678659D01*
X130744140Y-91672121D01*
X130727483Y-91665909D01*
X130727482Y-91665908D01*
X130667883Y-91659501D01*
X130667881Y-91659500D01*
X130667873Y-91659500D01*
X130667864Y-91659500D01*
X129672129Y-91659500D01*
X129672123Y-91659501D01*
X129612518Y-91665908D01*
X129578331Y-91678659D01*
X129508639Y-91683642D01*
X129491669Y-91678659D01*
X129474140Y-91672121D01*
X129457483Y-91665909D01*
X129457482Y-91665908D01*
X129397883Y-91659501D01*
X129397881Y-91659500D01*
X129397873Y-91659500D01*
X129397864Y-91659500D01*
X128402129Y-91659500D01*
X128402123Y-91659501D01*
X128342518Y-91665908D01*
X128308331Y-91678659D01*
X128238639Y-91683642D01*
X128221669Y-91678659D01*
X128204140Y-91672121D01*
X128187483Y-91665909D01*
X128187482Y-91665908D01*
X128127883Y-91659501D01*
X128127881Y-91659500D01*
X128127873Y-91659500D01*
X128127864Y-91659500D01*
X127132129Y-91659500D01*
X127132123Y-91659501D01*
X127072518Y-91665908D01*
X127038331Y-91678659D01*
X126968639Y-91683642D01*
X126951669Y-91678659D01*
X126934140Y-91672121D01*
X126917483Y-91665909D01*
X126917482Y-91665908D01*
X126857883Y-91659501D01*
X126857881Y-91659500D01*
X126857873Y-91659500D01*
X126857864Y-91659500D01*
X125862129Y-91659500D01*
X125862123Y-91659501D01*
X125802520Y-91665908D01*
X125802517Y-91665908D01*
X125802517Y-91665909D01*
X125767620Y-91678925D01*
X125767617Y-91678926D01*
X125697925Y-91683909D01*
X125680952Y-91678925D01*
X125647379Y-91666403D01*
X125647372Y-91666401D01*
X125587844Y-91660000D01*
X125340000Y-91660000D01*
X124840000Y-91660000D01*
X124592155Y-91660000D01*
X124532627Y-91666401D01*
X124532620Y-91666403D01*
X124397913Y-91716645D01*
X124397906Y-91716649D01*
X124282812Y-91802809D01*
X124282809Y-91802812D01*
X124196649Y-91917906D01*
X124196645Y-91917913D01*
X124146403Y-92052620D01*
X124146401Y-92052627D01*
X124140000Y-92112155D01*
X123300500Y-92112155D01*
X123300499Y-91162128D01*
X123294091Y-91102517D01*
X123281340Y-91068332D01*
X123276357Y-90998642D01*
X123281340Y-90981669D01*
X123294091Y-90947483D01*
X123300500Y-90887873D01*
X123300499Y-89892128D01*
X123294091Y-89832517D01*
X123281340Y-89798332D01*
X123276357Y-89728642D01*
X123281340Y-89711669D01*
X123294091Y-89677483D01*
X123300500Y-89617873D01*
X123300499Y-88622128D01*
X123294091Y-88562517D01*
X123281340Y-88528332D01*
X123276357Y-88458642D01*
X123281340Y-88441669D01*
X123294091Y-88407483D01*
X123300500Y-88347873D01*
X123300499Y-87352128D01*
X123294091Y-87292517D01*
X123281340Y-87258332D01*
X123276357Y-87188642D01*
X123281340Y-87171669D01*
X123294091Y-87137483D01*
X123300500Y-87077873D01*
X123300499Y-86082128D01*
X123294091Y-86022517D01*
X123281340Y-85988332D01*
X123276357Y-85918642D01*
X123281340Y-85901669D01*
X123294091Y-85867483D01*
X123300500Y-85807873D01*
X123300499Y-84812128D01*
X123294091Y-84752517D01*
X123281340Y-84718332D01*
X123276357Y-84648642D01*
X123279527Y-84637844D01*
X127520000Y-84637844D01*
X127526401Y-84697372D01*
X127526403Y-84697379D01*
X127576645Y-84832086D01*
X127576649Y-84832093D01*
X127662809Y-84947187D01*
X127662812Y-84947190D01*
X127777906Y-85033350D01*
X127777913Y-85033354D01*
X127912620Y-85083596D01*
X127912627Y-85083598D01*
X127972155Y-85089999D01*
X127972172Y-85090000D01*
X129870000Y-85090000D01*
X129870000Y-84265000D01*
X130370000Y-84265000D01*
X130370000Y-85090000D01*
X132267828Y-85090000D01*
X132267844Y-85089999D01*
X132327372Y-85083598D01*
X132327379Y-85083596D01*
X132462086Y-85033354D01*
X132462093Y-85033350D01*
X132577187Y-84947190D01*
X132577190Y-84947187D01*
X132663350Y-84832093D01*
X132663354Y-84832086D01*
X132713596Y-84697379D01*
X132713598Y-84697372D01*
X132719999Y-84637844D01*
X132720000Y-84637827D01*
X132720000Y-82740000D01*
X131895000Y-82740000D01*
X131895000Y-83148947D01*
X131910872Y-83164819D01*
X131944357Y-83226142D01*
X131939373Y-83295834D01*
X131910872Y-83340181D01*
X131895000Y-83356052D01*
X131895000Y-84141000D01*
X131875315Y-84208039D01*
X131822511Y-84253794D01*
X131771000Y-84265000D01*
X130986052Y-84265000D01*
X130970181Y-84280872D01*
X130908858Y-84314357D01*
X130839166Y-84309373D01*
X130794819Y-84280872D01*
X130778947Y-84265000D01*
X130370000Y-84265000D01*
X129870000Y-84265000D01*
X129461052Y-84265000D01*
X129445181Y-84280872D01*
X129383858Y-84314357D01*
X129314166Y-84309373D01*
X129269819Y-84280872D01*
X129253947Y-84265000D01*
X128469000Y-84265000D01*
X128401961Y-84245315D01*
X128356206Y-84192511D01*
X128345000Y-84141000D01*
X128345000Y-83995109D01*
X129257500Y-83995109D01*
X129257500Y-84034891D01*
X129272724Y-84071645D01*
X129300855Y-84099776D01*
X129337609Y-84115000D01*
X129377391Y-84115000D01*
X129414145Y-84099776D01*
X129442276Y-84071645D01*
X129457500Y-84034891D01*
X129457500Y-83995109D01*
X130782500Y-83995109D01*
X130782500Y-84034891D01*
X130797724Y-84071645D01*
X130825855Y-84099776D01*
X130862609Y-84115000D01*
X130902391Y-84115000D01*
X130939145Y-84099776D01*
X130967276Y-84071645D01*
X130982500Y-84034891D01*
X130982500Y-83995109D01*
X130967276Y-83958355D01*
X130939145Y-83930224D01*
X130902391Y-83915000D01*
X130862609Y-83915000D01*
X130825855Y-83930224D01*
X130797724Y-83958355D01*
X130782500Y-83995109D01*
X129457500Y-83995109D01*
X129442276Y-83958355D01*
X129414145Y-83930224D01*
X129377391Y-83915000D01*
X129337609Y-83915000D01*
X129300855Y-83930224D01*
X129272724Y-83958355D01*
X129257500Y-83995109D01*
X128345000Y-83995109D01*
X128345000Y-83356053D01*
X128329128Y-83340181D01*
X128295643Y-83278858D01*
X128298950Y-83232609D01*
X128495000Y-83232609D01*
X128495000Y-83272391D01*
X128510224Y-83309145D01*
X128538355Y-83337276D01*
X128575109Y-83352500D01*
X128614891Y-83352500D01*
X128651645Y-83337276D01*
X128679776Y-83309145D01*
X128695000Y-83272391D01*
X128695000Y-83252500D01*
X128948553Y-83252500D01*
X129005309Y-83309255D01*
X129357500Y-83661446D01*
X129766446Y-83252500D01*
X129746555Y-83232609D01*
X130020000Y-83232609D01*
X130020000Y-83272391D01*
X130035224Y-83309145D01*
X130063355Y-83337276D01*
X130100109Y-83352500D01*
X130139891Y-83352500D01*
X130176645Y-83337276D01*
X130204776Y-83309145D01*
X130220000Y-83272391D01*
X130220000Y-83252500D01*
X130473553Y-83252500D01*
X130530309Y-83309255D01*
X130882500Y-83661446D01*
X131291446Y-83252500D01*
X131271555Y-83232609D01*
X131545000Y-83232609D01*
X131545000Y-83272391D01*
X131560224Y-83309145D01*
X131588355Y-83337276D01*
X131625109Y-83352500D01*
X131664891Y-83352500D01*
X131701645Y-83337276D01*
X131729776Y-83309145D01*
X131745000Y-83272391D01*
X131745000Y-83232609D01*
X131729776Y-83195855D01*
X131701645Y-83167724D01*
X131664891Y-83152500D01*
X131625109Y-83152500D01*
X131588355Y-83167724D01*
X131560224Y-83195855D01*
X131545000Y-83232609D01*
X131271555Y-83232609D01*
X130937892Y-82898946D01*
X130882500Y-82843553D01*
X130827108Y-82898946D01*
X130827107Y-82898947D01*
X130473553Y-83252500D01*
X130220000Y-83252500D01*
X130220000Y-83232609D01*
X130204776Y-83195855D01*
X130176645Y-83167724D01*
X130139891Y-83152500D01*
X130100109Y-83152500D01*
X130063355Y-83167724D01*
X130035224Y-83195855D01*
X130020000Y-83232609D01*
X129746555Y-83232609D01*
X129412892Y-82898946D01*
X129357500Y-82843553D01*
X129302108Y-82898946D01*
X129302107Y-82898947D01*
X128948553Y-83252500D01*
X128695000Y-83252500D01*
X128695000Y-83232609D01*
X128679776Y-83195855D01*
X128651645Y-83167724D01*
X128614891Y-83152500D01*
X128575109Y-83152500D01*
X128538355Y-83167724D01*
X128510224Y-83195855D01*
X128495000Y-83232609D01*
X128298950Y-83232609D01*
X128300627Y-83209166D01*
X128329128Y-83164819D01*
X128344999Y-83148947D01*
X128345000Y-83148946D01*
X128345000Y-82740000D01*
X127520000Y-82740000D01*
X127520000Y-84637844D01*
X123279527Y-84637844D01*
X123281340Y-84631669D01*
X123294091Y-84597483D01*
X123300500Y-84537873D01*
X123300499Y-83542128D01*
X123294091Y-83482517D01*
X123281340Y-83448332D01*
X123276357Y-83378642D01*
X123281340Y-83361669D01*
X123294091Y-83327483D01*
X123300500Y-83267873D01*
X123300499Y-82470109D01*
X129257500Y-82470109D01*
X129257500Y-82509891D01*
X129272724Y-82546645D01*
X129300855Y-82574776D01*
X129337609Y-82590000D01*
X129377391Y-82590000D01*
X129414145Y-82574776D01*
X129442276Y-82546645D01*
X129457500Y-82509891D01*
X129457500Y-82470109D01*
X130782500Y-82470109D01*
X130782500Y-82509891D01*
X130797724Y-82546645D01*
X130825855Y-82574776D01*
X130862609Y-82590000D01*
X130902391Y-82590000D01*
X130939145Y-82574776D01*
X130967276Y-82546645D01*
X130982500Y-82509891D01*
X130982500Y-82470109D01*
X130967276Y-82433355D01*
X130939145Y-82405224D01*
X130902391Y-82390000D01*
X130862609Y-82390000D01*
X130825855Y-82405224D01*
X130797724Y-82433355D01*
X130782500Y-82470109D01*
X129457500Y-82470109D01*
X129442276Y-82433355D01*
X129414145Y-82405224D01*
X129377391Y-82390000D01*
X129337609Y-82390000D01*
X129300855Y-82405224D01*
X129272724Y-82433355D01*
X129257500Y-82470109D01*
X123300499Y-82470109D01*
X123300499Y-82272128D01*
X123294091Y-82212517D01*
X123281340Y-82178332D01*
X123276357Y-82108642D01*
X123281340Y-82091669D01*
X123294091Y-82057483D01*
X123300500Y-81997873D01*
X123300499Y-81002128D01*
X123294091Y-80942517D01*
X123281340Y-80908332D01*
X123276357Y-80838642D01*
X123281340Y-80821669D01*
X123294091Y-80787483D01*
X123300500Y-80727873D01*
X123300500Y-80342155D01*
X127520000Y-80342155D01*
X127520000Y-82240000D01*
X128345000Y-82240000D01*
X128345000Y-81831053D01*
X128329128Y-81815181D01*
X128295643Y-81753858D01*
X128298950Y-81707609D01*
X128495000Y-81707609D01*
X128495000Y-81747391D01*
X128510224Y-81784145D01*
X128538355Y-81812276D01*
X128575109Y-81827500D01*
X128614891Y-81827500D01*
X128651645Y-81812276D01*
X128679776Y-81784145D01*
X128695000Y-81747391D01*
X128695000Y-81727499D01*
X128948553Y-81727499D01*
X129357500Y-82136446D01*
X129766446Y-81727500D01*
X129746555Y-81707609D01*
X130020000Y-81707609D01*
X130020000Y-81747391D01*
X130035224Y-81784145D01*
X130063355Y-81812276D01*
X130100109Y-81827500D01*
X130139891Y-81827500D01*
X130176645Y-81812276D01*
X130204776Y-81784145D01*
X130220000Y-81747391D01*
X130220000Y-81727499D01*
X130473553Y-81727499D01*
X130882500Y-82136446D01*
X131291446Y-81727500D01*
X131271555Y-81707609D01*
X131545000Y-81707609D01*
X131545000Y-81747391D01*
X131560224Y-81784145D01*
X131588355Y-81812276D01*
X131625109Y-81827500D01*
X131664891Y-81827500D01*
X131701645Y-81812276D01*
X131729776Y-81784145D01*
X131745000Y-81747391D01*
X131745000Y-81707609D01*
X131729776Y-81670855D01*
X131701645Y-81642724D01*
X131664891Y-81627500D01*
X131625109Y-81627500D01*
X131588355Y-81642724D01*
X131560224Y-81670855D01*
X131545000Y-81707609D01*
X131271555Y-81707609D01*
X130937892Y-81373946D01*
X130882500Y-81318553D01*
X130827108Y-81373946D01*
X130827107Y-81373947D01*
X130473553Y-81727499D01*
X130220000Y-81727499D01*
X130220000Y-81707609D01*
X130204776Y-81670855D01*
X130176645Y-81642724D01*
X130139891Y-81627500D01*
X130100109Y-81627500D01*
X130063355Y-81642724D01*
X130035224Y-81670855D01*
X130020000Y-81707609D01*
X129746555Y-81707609D01*
X129412892Y-81373946D01*
X129357500Y-81318553D01*
X129302108Y-81373946D01*
X129302107Y-81373947D01*
X128948553Y-81727499D01*
X128695000Y-81727499D01*
X128695000Y-81707609D01*
X128679776Y-81670855D01*
X128651645Y-81642724D01*
X128614891Y-81627500D01*
X128575109Y-81627500D01*
X128538355Y-81642724D01*
X128510224Y-81670855D01*
X128495000Y-81707609D01*
X128298950Y-81707609D01*
X128300627Y-81684166D01*
X128329128Y-81639819D01*
X128344999Y-81623947D01*
X128345000Y-81623946D01*
X128345000Y-80945109D01*
X129257500Y-80945109D01*
X129257500Y-80984891D01*
X129272724Y-81021645D01*
X129300855Y-81049776D01*
X129337609Y-81065000D01*
X129377391Y-81065000D01*
X129414145Y-81049776D01*
X129442276Y-81021645D01*
X129457500Y-80984891D01*
X129457500Y-80945109D01*
X130782500Y-80945109D01*
X130782500Y-80984891D01*
X130797724Y-81021645D01*
X130825855Y-81049776D01*
X130862609Y-81065000D01*
X130902391Y-81065000D01*
X130939145Y-81049776D01*
X130967276Y-81021645D01*
X130982500Y-80984891D01*
X130982500Y-80945109D01*
X130967276Y-80908355D01*
X130939145Y-80880224D01*
X130902391Y-80865000D01*
X130862609Y-80865000D01*
X130825855Y-80880224D01*
X130797724Y-80908355D01*
X130782500Y-80945109D01*
X129457500Y-80945109D01*
X129442276Y-80908355D01*
X129414145Y-80880224D01*
X129377391Y-80865000D01*
X129337609Y-80865000D01*
X129300855Y-80880224D01*
X129272724Y-80908355D01*
X129257500Y-80945109D01*
X128345000Y-80945109D01*
X128345000Y-80839000D01*
X128364685Y-80771961D01*
X128417489Y-80726206D01*
X128469000Y-80715000D01*
X129253947Y-80715000D01*
X129253947Y-80714999D01*
X129269819Y-80699128D01*
X129331142Y-80665643D01*
X129400834Y-80670627D01*
X129445181Y-80699128D01*
X129461053Y-80715000D01*
X129870000Y-80715000D01*
X130370000Y-80715000D01*
X130778947Y-80715000D01*
X130778947Y-80714999D01*
X130794819Y-80699128D01*
X130856142Y-80665643D01*
X130925834Y-80670627D01*
X130970181Y-80699128D01*
X130986053Y-80715000D01*
X131771000Y-80715000D01*
X131838039Y-80734685D01*
X131883794Y-80787489D01*
X131895000Y-80839000D01*
X131895000Y-81623947D01*
X131910872Y-81639819D01*
X131944357Y-81701142D01*
X131939373Y-81770834D01*
X131910872Y-81815181D01*
X131895000Y-81831052D01*
X131895000Y-82240000D01*
X132720000Y-82240000D01*
X132720000Y-80342172D01*
X132719999Y-80342155D01*
X132713598Y-80282627D01*
X132713596Y-80282620D01*
X132663354Y-80147913D01*
X132663350Y-80147906D01*
X132577190Y-80032812D01*
X132577187Y-80032809D01*
X132462093Y-79946649D01*
X132462086Y-79946645D01*
X132327379Y-79896403D01*
X132327372Y-79896401D01*
X132267844Y-79890000D01*
X130370000Y-79890000D01*
X130370000Y-80715000D01*
X129870000Y-80715000D01*
X129870000Y-79890000D01*
X127972155Y-79890000D01*
X127912627Y-79896401D01*
X127912620Y-79896403D01*
X127777913Y-79946645D01*
X127777906Y-79946649D01*
X127662812Y-80032809D01*
X127662809Y-80032812D01*
X127576649Y-80147906D01*
X127576645Y-80147913D01*
X127526403Y-80282620D01*
X127526401Y-80282627D01*
X127520000Y-80342155D01*
X123300500Y-80342155D01*
X123300499Y-79732128D01*
X123294091Y-79672517D01*
X123281340Y-79638332D01*
X123276357Y-79568642D01*
X123281340Y-79551669D01*
X123294091Y-79517483D01*
X123300500Y-79457873D01*
X123300499Y-78462128D01*
X123294091Y-78402517D01*
X123281340Y-78368332D01*
X123276357Y-78298642D01*
X123281340Y-78281669D01*
X123294091Y-78247483D01*
X123300500Y-78187873D01*
X123300499Y-77192128D01*
X123294091Y-77132517D01*
X123281340Y-77098332D01*
X123276357Y-77028642D01*
X123281340Y-77011669D01*
X123294091Y-76977483D01*
X123300500Y-76917873D01*
X123300499Y-75922128D01*
X123294091Y-75862517D01*
X123281073Y-75827616D01*
X123276090Y-75757926D01*
X123281075Y-75740949D01*
X123293597Y-75707375D01*
X123293598Y-75707372D01*
X123299999Y-75647844D01*
X123300000Y-75647827D01*
X123300000Y-75400000D01*
X120800000Y-75400000D01*
X120800000Y-75647844D01*
X120806401Y-75707372D01*
X120806403Y-75707379D01*
X120818925Y-75740952D01*
X120823909Y-75810643D01*
X120818925Y-75827617D01*
X120805909Y-75862514D01*
X120805908Y-75862516D01*
X120799501Y-75922116D01*
X120799501Y-75922123D01*
X120799500Y-75922135D01*
X120799500Y-76917870D01*
X120799501Y-76917876D01*
X120805908Y-76977481D01*
X120818659Y-77011669D01*
X120823642Y-77081361D01*
X120818659Y-77098331D01*
X120805908Y-77132518D01*
X120802951Y-77160028D01*
X120799501Y-77192123D01*
X120799500Y-77192135D01*
X120799500Y-78187870D01*
X120799501Y-78187876D01*
X120805908Y-78247481D01*
X120818659Y-78281669D01*
X120823642Y-78351361D01*
X120818659Y-78368331D01*
X120805908Y-78402518D01*
X120799501Y-78462116D01*
X120799501Y-78462123D01*
X120799500Y-78462135D01*
X120799500Y-79457870D01*
X120799501Y-79457876D01*
X120805908Y-79517481D01*
X120818659Y-79551669D01*
X120823642Y-79621361D01*
X120818659Y-79638331D01*
X120805908Y-79672518D01*
X120799501Y-79732116D01*
X120799501Y-79732123D01*
X120799500Y-79732135D01*
X120799500Y-80727870D01*
X120799501Y-80727876D01*
X120805908Y-80787481D01*
X120818659Y-80821669D01*
X120823642Y-80891361D01*
X120818659Y-80908331D01*
X120805908Y-80942518D01*
X120801353Y-80984891D01*
X120799501Y-81002123D01*
X120799500Y-81002135D01*
X120799500Y-81997870D01*
X120799501Y-81997876D01*
X120805908Y-82057481D01*
X120818659Y-82091669D01*
X120823642Y-82161361D01*
X120818659Y-82178331D01*
X120805908Y-82212518D01*
X120802954Y-82240000D01*
X120799501Y-82272123D01*
X120799500Y-82272135D01*
X120799500Y-83267870D01*
X120799501Y-83267876D01*
X120805908Y-83327481D01*
X120818659Y-83361669D01*
X120823642Y-83431361D01*
X120818659Y-83448331D01*
X120805908Y-83482518D01*
X120799501Y-83542116D01*
X120799501Y-83542123D01*
X120799500Y-83542135D01*
X120799500Y-84537870D01*
X120799501Y-84537876D01*
X120805908Y-84597481D01*
X120818659Y-84631669D01*
X120823642Y-84701361D01*
X120818659Y-84718331D01*
X120805908Y-84752518D01*
X120799501Y-84812116D01*
X120799501Y-84812123D01*
X120799500Y-84812135D01*
X120799500Y-85807870D01*
X120799501Y-85807876D01*
X120805908Y-85867481D01*
X120818659Y-85901669D01*
X120823642Y-85971361D01*
X120818659Y-85988331D01*
X120805908Y-86022518D01*
X120799808Y-86079261D01*
X120799501Y-86082123D01*
X120799500Y-86082135D01*
X120799500Y-87077870D01*
X120799501Y-87077876D01*
X120805908Y-87137481D01*
X120818659Y-87171669D01*
X120823642Y-87241361D01*
X120818659Y-87258331D01*
X120805908Y-87292518D01*
X120799987Y-87347598D01*
X120799501Y-87352123D01*
X120799500Y-87352135D01*
X120799500Y-87801787D01*
X120779815Y-87868826D01*
X120727011Y-87914581D01*
X120657853Y-87924525D01*
X120609529Y-87906781D01*
X120589525Y-87894212D01*
X120419254Y-87834631D01*
X120419249Y-87834630D01*
X120240004Y-87814435D01*
X120239996Y-87814435D01*
X120060750Y-87834630D01*
X120060745Y-87834631D01*
X119890476Y-87894211D01*
X119737737Y-87990184D01*
X119610184Y-88117737D01*
X119514211Y-88270476D01*
X119454631Y-88440745D01*
X119454630Y-88440749D01*
X119434455Y-88619811D01*
X119407388Y-88684225D01*
X119349793Y-88723780D01*
X119279956Y-88725917D01*
X119223554Y-88693608D01*
X118184674Y-87654727D01*
X118184673Y-87654726D01*
X118184669Y-87654723D01*
X118078127Y-87583535D01*
X118076456Y-87582843D01*
X117959744Y-87534499D01*
X117959738Y-87534497D01*
X117834071Y-87509500D01*
X117834069Y-87509500D01*
X109320475Y-87509500D01*
X109320473Y-87509500D01*
X109194805Y-87534497D01*
X109194799Y-87534499D01*
X109114996Y-87567555D01*
X109114995Y-87567555D01*
X109076420Y-87583532D01*
X108969870Y-87654726D01*
X108534726Y-88089870D01*
X108463534Y-88196418D01*
X108414499Y-88314799D01*
X108414497Y-88314805D01*
X108389500Y-88440472D01*
X104610500Y-88440472D01*
X104610500Y-86159986D01*
X106580001Y-86159986D01*
X106590494Y-86262697D01*
X106645641Y-86429119D01*
X106645643Y-86429124D01*
X106737684Y-86578345D01*
X106861654Y-86702315D01*
X107010875Y-86794356D01*
X107010880Y-86794358D01*
X107177302Y-86849505D01*
X107177310Y-86849506D01*
X107261954Y-86858154D01*
X107269263Y-86859999D01*
X107273695Y-86859999D01*
X107286310Y-86860642D01*
X107293462Y-86861373D01*
X107301420Y-86859999D01*
X109454999Y-86859999D01*
X109955000Y-86859999D01*
X112230000Y-86859999D01*
X112730000Y-86859999D01*
X115004999Y-86859999D01*
X115505000Y-86859999D01*
X117679972Y-86859999D01*
X117679986Y-86859998D01*
X117782697Y-86849505D01*
X117949119Y-86794358D01*
X117949124Y-86794356D01*
X118098345Y-86702315D01*
X118222315Y-86578345D01*
X118314356Y-86429124D01*
X118314358Y-86429119D01*
X118369505Y-86262697D01*
X118369506Y-86262690D01*
X118379999Y-86159986D01*
X118380000Y-86159973D01*
X118380000Y-84335000D01*
X115505000Y-84335000D01*
X115505000Y-86859999D01*
X115004999Y-86859999D01*
X115005000Y-86859998D01*
X115005000Y-84335000D01*
X112730000Y-84335000D01*
X112730000Y-86859999D01*
X112230000Y-86859999D01*
X112230000Y-84335000D01*
X109955000Y-84335000D01*
X109955000Y-86859999D01*
X109454999Y-86859999D01*
X109455000Y-86859998D01*
X109455000Y-84335000D01*
X106580001Y-84335000D01*
X106580001Y-86159986D01*
X104610500Y-86159986D01*
X104610500Y-83835000D01*
X106580000Y-83835000D01*
X109455000Y-83835000D01*
X109955000Y-83835000D01*
X112230000Y-83835000D01*
X112730000Y-83835000D01*
X115005000Y-83835000D01*
X115505000Y-83835000D01*
X118379999Y-83835000D01*
X118379999Y-81910000D01*
X115505000Y-81910000D01*
X115505000Y-83835000D01*
X115005000Y-83835000D01*
X115005000Y-81910000D01*
X112730000Y-81910000D01*
X112730000Y-83835000D01*
X112230000Y-83835000D01*
X112230000Y-81910000D01*
X109955000Y-81910000D01*
X109955000Y-83835000D01*
X109455000Y-83835000D01*
X109455000Y-81910000D01*
X106580000Y-81910000D01*
X106580000Y-83835000D01*
X104610500Y-83835000D01*
X104610500Y-81410000D01*
X106580000Y-81410000D01*
X109455000Y-81410000D01*
X109955000Y-81410000D01*
X112230000Y-81410000D01*
X112730000Y-81410000D01*
X115005000Y-81410000D01*
X115505000Y-81410000D01*
X118379999Y-81410000D01*
X118379999Y-81316113D01*
X118380000Y-81316092D01*
X118380000Y-79485000D01*
X115505000Y-79485000D01*
X115505000Y-81410000D01*
X115005000Y-81410000D01*
X115005000Y-79485000D01*
X112730000Y-79485000D01*
X112730000Y-81410000D01*
X112230000Y-81410000D01*
X112230000Y-79485000D01*
X109955000Y-79485000D01*
X109955000Y-81410000D01*
X109455000Y-81410000D01*
X109455000Y-79485000D01*
X106580000Y-79485000D01*
X106580000Y-81410000D01*
X104610500Y-81410000D01*
X104610500Y-77160015D01*
X106580000Y-77160015D01*
X106580000Y-78985000D01*
X109455000Y-78985000D01*
X109955000Y-78985000D01*
X112230000Y-78985000D01*
X112730000Y-78985000D01*
X115005000Y-78985000D01*
X115505000Y-78985000D01*
X118379999Y-78985000D01*
X118379999Y-77160028D01*
X118379998Y-77160013D01*
X118369505Y-77057302D01*
X118314358Y-76890880D01*
X118314356Y-76890875D01*
X118222315Y-76741654D01*
X118098345Y-76617684D01*
X117949124Y-76525643D01*
X117949119Y-76525641D01*
X117782697Y-76470494D01*
X117782690Y-76470493D01*
X117679986Y-76460000D01*
X115505000Y-76460000D01*
X115505000Y-78985000D01*
X115005000Y-78985000D01*
X115005000Y-76460000D01*
X112730000Y-76460000D01*
X112730000Y-78985000D01*
X112230000Y-78985000D01*
X112230000Y-76460000D01*
X109955000Y-76460000D01*
X109955000Y-78985000D01*
X109455000Y-78985000D01*
X109455000Y-76460000D01*
X107280028Y-76460000D01*
X107280012Y-76460001D01*
X107177302Y-76470494D01*
X107010880Y-76525641D01*
X107010875Y-76525643D01*
X106861654Y-76617684D01*
X106737684Y-76741654D01*
X106645643Y-76890875D01*
X106645641Y-76890880D01*
X106590494Y-77057301D01*
X106590023Y-77060221D01*
X106589852Y-77063589D01*
X106580000Y-77160015D01*
X104610500Y-77160015D01*
X104610500Y-74652155D01*
X120800000Y-74652155D01*
X120800000Y-74900000D01*
X121800000Y-74900000D01*
X122300000Y-74900000D01*
X123300000Y-74900000D01*
X123300000Y-74652172D01*
X123299999Y-74652155D01*
X138300000Y-74652155D01*
X138300000Y-74900000D01*
X139300000Y-74900000D01*
X139800000Y-74900000D01*
X140800000Y-74900000D01*
X140800000Y-74652172D01*
X140799999Y-74652155D01*
X140793598Y-74592627D01*
X140793596Y-74592620D01*
X140743354Y-74457913D01*
X140743350Y-74457906D01*
X140657190Y-74342812D01*
X140657187Y-74342809D01*
X140542093Y-74256649D01*
X140542086Y-74256645D01*
X140407379Y-74206403D01*
X140407372Y-74206401D01*
X140347844Y-74200000D01*
X139800000Y-74200000D01*
X139800000Y-74900000D01*
X139300000Y-74900000D01*
X139300000Y-74200000D01*
X138752155Y-74200000D01*
X138692627Y-74206401D01*
X138692620Y-74206403D01*
X138557913Y-74256645D01*
X138557906Y-74256649D01*
X138442812Y-74342809D01*
X138442809Y-74342812D01*
X138356649Y-74457906D01*
X138356645Y-74457913D01*
X138306403Y-74592620D01*
X138306401Y-74592627D01*
X138300000Y-74652155D01*
X123299999Y-74652155D01*
X123293598Y-74592627D01*
X123293596Y-74592620D01*
X123243354Y-74457913D01*
X123243350Y-74457906D01*
X123157190Y-74342812D01*
X123157187Y-74342809D01*
X123042093Y-74256649D01*
X123042086Y-74256645D01*
X122907379Y-74206403D01*
X122907372Y-74206401D01*
X122847844Y-74200000D01*
X122300000Y-74200000D01*
X122300000Y-74900000D01*
X121800000Y-74900000D01*
X121800000Y-74200000D01*
X121252155Y-74200000D01*
X121192627Y-74206401D01*
X121192620Y-74206403D01*
X121057913Y-74256645D01*
X121057906Y-74256649D01*
X120942812Y-74342809D01*
X120942809Y-74342812D01*
X120856649Y-74457906D01*
X120856645Y-74457913D01*
X120806403Y-74592620D01*
X120806401Y-74592627D01*
X120800000Y-74652155D01*
X104610500Y-74652155D01*
X104610500Y-73600000D01*
X106800000Y-73600000D01*
X154800000Y-73600000D01*
X154800000Y-52660000D01*
X106800000Y-52660000D01*
X106800000Y-73600000D01*
X104610500Y-73600000D01*
X104610500Y-51514500D01*
X104630185Y-51447461D01*
X104682989Y-51401706D01*
X104734500Y-51390500D01*
X165015500Y-51390500D01*
X165082539Y-51410185D01*
G37*
%TD.AperFunction*%
%TD*%
M02*
